<svg width="32" height="32" viewBox="0 0 32 32" fill="none" xmlns="http://www.w3.org/2000/svg">
<circle cx="16" cy="16" r="16" fill="#FCA311"/>
<circle cx="16" cy="16" r="16" fill="url(#paint0_linear_2_140)"/>
<path d="M8.816 20V11.6H14.24V12.836H10.352V15.188H13.496V16.4H10.352V20H8.816ZM15.4254 20V11.6H18.7974C19.6694 11.6 20.3334 11.804 20.7894 12.212C21.2534 12.612 21.4854 13.128 21.4854 13.76C21.4854 14.288 21.3414 14.712 21.0534 15.032C20.7734 15.344 20.4294 15.556 20.0214 15.668C20.5014 15.764 20.8974 16.004 21.2094 16.388C21.5214 16.764 21.6774 17.204 21.6774 17.708C21.6774 18.372 21.4374 18.92 20.9574 19.352C20.4774 19.784 19.7974 20 18.9174 20H15.4254ZM16.9614 15.128H18.5694C19.0014 15.128 19.3334 15.028 19.5654 14.828C19.7974 14.628 19.9134 14.344 19.9134 13.976C19.9134 13.624 19.7974 13.348 19.5654 13.148C19.3414 12.94 19.0014 12.836 18.5454 12.836H16.9614V15.128ZM16.9614 18.752H18.6774C19.1334 18.752 19.4854 18.648 19.7334 18.44C19.9894 18.224 20.1174 17.924 20.1174 17.54C20.1174 17.148 19.9854 16.84 19.7214 16.616C19.4574 16.392 19.1014 16.28 18.6534 16.28H16.9614V18.752Z" fill="white"/>
<defs>
<linearGradient id="paint0_linear_2_140" x1="-5.21541e-08" y1="-0.148148" x2="19.4968" y2="38.2074" gradientUnits="userSpaceOnUse">
<stop stop-color="#09C6F9"/>
<stop offset="1" stop-color="#045DE9"/>
</linearGradient>
</defs>
</svg>
