<svg width="32" height="32" viewBox="0 0 32 32" fill="none" xmlns="http://www.w3.org/2000/svg">
<circle cx="16" cy="16" r="16" fill="#FCA311"/>
<circle cx="16" cy="16" r="16" fill="url(#paint0_linear_2_137)"/>
<path d="M9.816 20V11.6H11.352V20H9.816ZM16.6521 20.144C15.8601 20.144 15.1681 19.964 14.5761 19.604C13.9841 19.244 13.5241 18.744 13.1961 18.104C12.8681 17.456 12.7041 16.704 12.7041 15.848C12.7041 14.984 12.8721 14.224 13.2081 13.568C13.5521 12.904 14.0361 12.388 14.6601 12.02C15.2921 11.644 16.0401 11.456 16.9041 11.456C17.8881 11.456 18.7041 11.692 19.3521 12.164C20.0001 12.636 20.4201 13.288 20.6121 14.12H18.8961C18.7681 13.728 18.5361 13.424 18.2001 13.208C17.8641 12.984 17.4321 12.872 16.9041 12.872C16.0641 12.872 15.4161 13.14 14.9601 13.676C14.5041 14.204 14.2761 14.932 14.2761 15.86C14.2761 16.788 14.5001 17.508 14.9481 18.02C15.4041 18.524 16.0201 18.776 16.7961 18.776C17.5561 18.776 18.1281 18.572 18.5121 18.164C18.9041 17.748 19.1401 17.204 19.2201 16.532H17.0961V15.38H20.7681V20H19.3521L19.2321 18.896C18.9601 19.296 18.6201 19.604 18.2121 19.82C17.8041 20.036 17.2841 20.144 16.6521 20.144Z" fill="white"/>
<defs>
<linearGradient id="paint0_linear_2_137" x1="-5.21541e-08" y1="-0.148148" x2="19.4968" y2="38.2074" gradientUnits="userSpaceOnUse">
<stop stop-color="#09C6F9"/>
<stop offset="1" stop-color="#045DE9"/>
</linearGradient>
</defs>
</svg>
