<svg width="544" height="420" viewBox="0 0 544 420" fill="none" xmlns="http://www.w3.org/2000/svg">
<g clip-path="url(#clip0_2_378)">
<path d="M87.3675 109.43C88.0459 102.906 90.3626 96.66 94.1019 91.2728C97.8411 85.8856 102.881 81.5325 108.754 78.6186C114.626 75.7047 121.14 74.3247 127.689 74.6071C134.237 74.8894 140.608 76.825 146.208 80.2335C151.284 76.664 157.189 74.454 163.36 73.8136C169.531 73.1733 175.763 74.1241 181.463 76.5754C187.163 79.0267 192.141 82.897 195.923 87.8179C199.706 92.7388 202.167 98.5465 203.072 104.688C212.309 106.835 220.433 112.307 225.898 120.061C231.363 127.815 233.787 137.31 232.708 146.737C231.629 156.164 227.123 164.865 220.047 171.182C212.972 177.499 203.822 180.991 194.34 180.993H101.407C92.7957 180.999 84.4494 178.01 77.7981 172.535C71.1468 167.061 66.6042 159.444 64.9482 150.987C63.2923 142.53 64.6259 133.76 68.7208 126.179C72.8157 118.597 79.4171 112.677 87.3946 109.43H87.3675Z" fill="#66C5FF"/>
<path opacity="0.6" d="M182.033 138.952C182.953 134.524 182.953 129.954 182.033 125.526L176.78 124.781C176.191 122.622 175.331 120.546 174.221 118.603L177.402 114.349C174.934 110.565 171.706 107.335 167.925 104.865L163.687 108.021C161.738 106.913 159.66 106.048 157.5 105.447L156.769 100.204C152.335 99.2826 147.759 99.2826 143.325 100.204L142.58 105.447C140.42 106.048 138.342 106.913 136.393 108.021L132.141 104.838C128.367 107.317 125.142 110.545 122.664 114.321L125.846 118.589C124.735 120.532 123.876 122.608 123.287 124.767L118.034 125.512C117.113 129.94 117.113 134.511 118.034 138.939L123.287 139.698C123.879 141.853 124.744 143.925 125.859 145.862L122.664 150.143C125.142 153.92 128.367 157.148 132.141 159.627L136.393 156.43C138.342 157.534 140.42 158.394 142.58 158.99L143.325 164.261C147.754 165.182 152.326 165.182 156.755 164.261L157.5 158.99C159.66 158.394 161.738 157.534 163.687 156.43L167.939 159.627C171.713 157.148 174.938 153.92 177.416 150.143L174.221 145.876C175.334 143.932 176.198 141.857 176.793 139.698L182.033 138.952ZM150.013 148.084C146.89 148.087 143.837 147.162 141.239 145.428C138.641 143.694 136.615 141.228 135.418 138.341C134.221 135.455 133.907 132.278 134.514 129.213C135.122 126.148 136.625 123.332 138.832 121.121C141.039 118.91 143.852 117.404 146.915 116.794C149.977 116.183 153.152 116.495 156.038 117.69C158.923 118.886 161.389 120.91 163.124 123.509C164.86 126.107 165.786 129.162 165.786 132.287C165.788 134.36 165.381 136.414 164.589 138.331C163.797 140.247 162.636 141.989 161.171 143.456C159.706 144.923 157.967 146.087 156.052 146.881C154.138 147.675 152.085 148.084 150.013 148.084Z" fill="white"/>
<path d="M299.173 72.8227C299.855 66.3004 302.174 60.0565 305.914 54.6714C309.654 49.2863 314.693 44.9348 320.565 42.0215C326.436 39.1082 332.948 37.7277 339.495 38.0082C346.043 38.2887 352.413 40.2211 358.014 43.6259C363.092 40.0601 368.997 37.8535 375.168 37.2159C381.338 36.5783 387.569 37.5309 393.268 39.9832C398.967 42.4354 403.944 46.3057 407.727 51.2261C411.509 56.1464 413.971 61.9532 414.878 68.0943C424.115 70.2416 432.24 75.7144 437.705 83.47C443.17 91.2256 445.593 100.722 444.513 110.15C443.432 119.578 438.923 128.279 431.845 134.595C424.767 140.911 415.615 144.4 406.132 144.399H313.199C304.589 144.4 296.246 141.407 289.597 135.933C282.949 130.458 278.407 122.842 276.75 114.387C275.093 105.932 276.424 97.1635 280.514 89.5816C284.604 81.9997 291.2 76.0756 299.173 72.8227Z" fill="#66C5FF"/>
<g opacity="0.6">
<path d="M343.838 105.745C343.838 100.529 346.627 97.6162 350.364 97.6162C354.101 97.6162 356.89 100.583 356.89 105.745C356.89 110.907 354.101 113.874 350.364 113.874C346.627 113.874 343.838 110.961 343.838 105.745ZM354.602 105.745C354.602 101.681 352.855 99.5943 350.364 99.5943C347.873 99.5943 346.113 101.654 346.113 105.745C346.113 109.837 347.859 111.896 350.364 111.896C352.869 111.896 354.588 109.837 354.588 105.745H354.602Z" fill="white"/>
<path d="M359.083 105.745C359.083 100.529 361.873 97.6162 365.623 97.6162C369.373 97.6162 372.135 100.583 372.135 105.745C372.135 110.907 369.346 113.874 365.623 113.874C361.9 113.874 359.083 110.961 359.083 105.745ZM369.847 105.745C369.847 101.681 368.114 99.5943 365.623 99.5943C363.132 99.5943 361.372 101.654 361.372 105.745C361.372 109.837 363.105 111.896 365.623 111.896C368.141 111.896 369.847 109.837 369.847 105.745Z" fill="white"/>
<path d="M379.23 97.738V113.752H376.968V99.7297H373.354V97.738H379.23Z" fill="white"/>
<path d="M382.736 105.745C382.736 100.529 385.525 97.6162 389.276 97.6162C393.026 97.6162 395.788 100.583 395.788 105.745C395.788 110.907 392.999 113.874 389.276 113.874C385.552 113.874 382.736 110.961 382.736 105.745ZM393.5 105.745C393.5 101.681 391.767 99.5943 389.276 99.5943C386.784 99.5943 385.024 101.654 385.024 105.745C385.024 109.837 386.757 111.896 389.276 111.896C391.794 111.896 393.5 109.837 393.5 105.745Z" fill="white"/>
<path d="M402.882 97.738V113.752H400.621V99.7297H397.02V97.738H402.882Z" fill="white"/>
<path d="M406.375 105.745C406.375 100.529 409.165 97.6162 412.915 97.6162C416.665 97.6162 419.427 100.583 419.427 105.745C419.427 110.907 416.638 113.874 412.915 113.874C409.192 113.874 406.375 110.961 406.375 105.745ZM417.139 105.745C417.139 101.681 415.406 99.5943 412.915 99.5943C410.424 99.5943 408.664 101.654 408.664 105.745C408.664 109.837 410.397 111.896 412.915 111.896C415.433 111.896 417.139 109.837 417.139 105.745Z" fill="white"/>
<path d="M426.521 97.738V113.752H424.26V99.7297H420.646V97.738H426.521Z" fill="white"/>
</g>
<path d="M178.161 280.858C178.16 272.068 175.359 263.507 170.167 256.418C164.974 249.328 157.658 244.079 149.282 241.432C148.448 234.853 145.949 228.595 142.022 223.253C138.094 217.91 132.869 213.659 126.84 210.904C120.812 208.148 114.18 206.978 107.573 207.505C100.966 208.032 94.6032 210.239 89.0871 213.916C83.5699 210.239 77.2063 208.033 70.5988 207.506C63.9914 206.98 57.359 208.149 51.3297 210.905C45.3003 213.661 40.0738 217.911 36.145 223.253C32.2161 228.595 29.7152 234.852 28.8788 241.432C19.4766 244.408 11.4483 250.651 6.24501 259.033C1.0417 267.416 -0.993272 277.384 0.50791 287.137C2.00909 296.89 6.94738 305.784 14.4302 312.211C21.913 318.638 31.4466 322.174 41.3077 322.181H137.76C148.555 321.943 158.828 317.486 166.38 309.762C173.931 302.039 178.16 291.663 178.161 280.858Z" fill="#24A7FF"/>
<path d="M88.7351 213.753C83.2103 210.153 76.8621 208.016 70.2861 207.542C63.71 207.069 57.1216 208.275 51.1387 211.047C45.1559 213.819 39.9747 218.066 36.0812 223.391C32.1877 228.715 29.7094 234.941 28.8788 241.487C19.4766 244.462 11.4483 250.705 6.24501 259.088C1.0417 267.47 -0.993272 277.439 0.50791 287.191C2.00909 296.944 6.94738 305.838 14.4302 312.265C21.913 318.692 31.4466 322.229 41.3077 322.235H70.2678L88.7351 213.753Z" fill="#3BB0FF"/>
<path d="M189.655 302.048H84.2808V309.892H189.655V302.048Z" fill="#3D4959"/>
<path d="M189.655 264.017H84.2808V271.862H189.655V264.017Z" fill="#3D4959"/>
<path d="M194.367 307.955H79.1089C76.1104 307.955 73.6797 310.387 73.6797 313.388V337.788C73.6797 340.789 76.1104 343.221 79.1089 343.221H194.367C197.365 343.221 199.796 340.789 199.796 337.788V313.388C199.796 310.387 197.365 307.955 194.367 307.955Z" fill="#D6E0EA"/>
<path d="M126.022 307.955L120.281 343.181H79.109C77.6727 343.181 76.2952 342.61 75.2796 341.593C74.2639 340.577 73.6934 339.199 73.6934 337.761V313.374C73.6934 311.937 74.2639 310.558 75.2796 309.542C76.2952 308.526 77.6727 307.955 79.109 307.955H126.022Z" fill="#EDEDED"/>
<path d="M192.038 335.458V315.718H81.4374V335.458H192.038Z" fill="#3D4959"/>
<path d="M183.319 325.568C183.322 326.241 183.125 326.9 182.753 327.461C182.381 328.022 181.851 328.46 181.231 328.719C180.61 328.979 179.926 329.048 179.266 328.918C178.606 328.789 177.999 328.466 177.523 327.991C177.046 327.516 176.721 326.91 176.589 326.25C176.457 325.59 176.523 324.905 176.78 324.283C177.037 323.661 177.472 323.129 178.031 322.755C178.59 322.38 179.248 322.181 179.921 322.181C180.82 322.181 181.682 322.537 182.319 323.172C182.956 323.807 183.315 324.668 183.319 325.568Z" fill="#24A7FF"/>
<path d="M168.643 325.568C168.643 326.144 168.472 326.707 168.152 327.186C167.832 327.665 167.378 328.038 166.846 328.259C166.314 328.479 165.728 328.537 165.164 328.425C164.599 328.312 164.08 328.035 163.673 327.627C163.266 327.22 162.989 326.701 162.877 326.136C162.764 325.571 162.822 324.985 163.042 324.453C163.263 323.921 163.636 323.466 164.114 323.146C164.593 322.826 165.156 322.655 165.732 322.655C166.504 322.655 167.244 322.962 167.79 323.508C168.336 324.054 168.643 324.795 168.643 325.568Z" fill="#24A7FF"/>
<path d="M154.454 325.568C154.454 326.144 154.283 326.707 153.963 327.186C153.643 327.665 153.189 328.038 152.657 328.259C152.125 328.479 151.54 328.537 150.975 328.425C150.41 328.312 149.892 328.035 149.484 327.627C149.077 327.22 148.8 326.701 148.688 326.136C148.575 325.571 148.633 324.985 148.853 324.453C149.074 323.921 149.447 323.466 149.926 323.146C150.404 322.826 150.967 322.655 151.543 322.655C152.315 322.655 153.055 322.962 153.601 323.508C154.147 324.054 154.454 324.795 154.454 325.568Z" fill="white"/>
<path d="M140.265 325.568C140.265 326.144 140.094 326.707 139.774 327.186C139.454 327.665 139 328.038 138.468 328.259C137.936 328.479 137.351 328.537 136.786 328.425C136.221 328.312 135.703 328.035 135.295 327.627C134.888 327.22 134.611 326.701 134.499 326.136C134.386 325.571 134.444 324.985 134.664 324.453C134.885 323.921 135.258 323.466 135.737 323.146C136.215 322.826 136.778 322.655 137.354 322.655C138.126 322.655 138.866 322.962 139.412 323.508C139.958 324.054 140.265 324.795 140.265 325.568Z" fill="#24A7FF"/>
<path d="M126.076 325.568C126.076 326.144 125.905 326.707 125.585 327.186C125.265 327.665 124.811 328.038 124.279 328.259C123.747 328.479 123.162 328.537 122.597 328.425C122.032 328.312 121.514 328.035 121.106 327.627C120.699 327.22 120.422 326.701 120.31 326.136C120.198 325.571 120.255 324.985 120.475 324.453C120.696 323.921 121.069 323.466 121.548 323.146C122.026 322.826 122.589 322.655 123.165 322.655C123.937 322.655 124.677 322.962 125.223 323.508C125.769 324.054 126.076 324.795 126.076 325.568Z" fill="white"/>
<path d="M194.367 269.328H79.1089C76.1104 269.328 73.6797 271.761 73.6797 274.761V299.162C73.6797 302.162 76.1104 304.595 79.1089 304.595H194.367C197.365 304.595 199.796 302.162 199.796 299.162V274.761C199.796 271.761 197.365 269.328 194.367 269.328Z" fill="#D6E0EA"/>
<path d="M132.304 269.328L126.577 304.554H79.109C77.6727 304.554 76.2952 303.983 75.2796 302.967C74.2639 301.951 73.6934 300.572 73.6934 299.135V274.748C73.6934 273.31 74.2639 271.932 75.2796 270.916C76.2952 269.899 77.6727 269.328 79.109 269.328H132.304Z" fill="#EDEDED"/>
<path d="M192.038 296.832V277.092H81.4374V296.832H192.038Z" fill="#3D4959"/>
<path d="M194.367 231.298H79.1089C76.1104 231.298 73.6797 233.73 73.6797 236.731V261.132C73.6797 264.132 76.1104 266.565 79.1089 266.565H194.367C197.365 266.565 199.796 264.132 199.796 261.132V236.731C199.796 233.73 197.365 231.298 194.367 231.298Z" fill="#D6E0EA"/>
<path d="M138.505 231.298L132.764 266.524H79.109C77.6727 266.524 76.2952 265.953 75.2796 264.937C74.2639 263.92 73.6934 262.542 73.6934 261.105V236.717C73.6934 235.28 74.2639 233.902 75.2796 232.885C76.2952 231.869 77.6727 231.298 79.109 231.298H138.505Z" fill="#EDEDED"/>
<path d="M192.052 258.815V239.075H81.451V258.815H192.052Z" fill="#3D4959"/>
<path d="M179.921 290.355C181.798 290.355 183.319 288.833 183.319 286.955C183.319 285.077 181.798 283.554 179.921 283.554C178.044 283.554 176.522 285.077 176.522 286.955C176.522 288.833 178.044 290.355 179.921 290.355Z" fill="#24A7FF"/>
<path d="M168.643 286.955C168.643 287.531 168.472 288.094 168.152 288.573C167.832 289.052 167.378 289.426 166.846 289.646C166.314 289.867 165.728 289.924 165.164 289.812C164.599 289.699 164.08 289.422 163.673 289.015C163.266 288.607 162.989 288.088 162.877 287.523C162.764 286.958 162.822 286.372 163.042 285.84C163.263 285.308 163.636 284.853 164.114 284.533C164.593 284.213 165.156 284.042 165.732 284.042C166.504 284.042 167.244 284.349 167.79 284.895C168.336 285.441 168.643 286.182 168.643 286.955Z" fill="#24A7FF"/>
<path d="M154.454 286.955C154.454 287.531 154.283 288.094 153.963 288.573C153.643 289.052 153.189 289.426 152.657 289.646C152.125 289.867 151.54 289.924 150.975 289.812C150.41 289.699 149.892 289.422 149.484 289.015C149.077 288.607 148.8 288.088 148.688 287.523C148.575 286.958 148.633 286.372 148.853 285.84C149.074 285.308 149.447 284.853 149.926 284.533C150.404 284.213 150.967 284.042 151.543 284.042C152.315 284.042 153.055 284.349 153.601 284.895C154.147 285.441 154.454 286.182 154.454 286.955Z" fill="white"/>
<path d="M140.265 286.955C140.265 287.531 140.094 288.094 139.774 288.573C139.454 289.052 139 289.426 138.468 289.646C137.936 289.867 137.351 289.924 136.786 289.812C136.221 289.699 135.703 289.422 135.295 289.015C134.888 288.607 134.611 288.088 134.499 287.523C134.386 286.958 134.444 286.372 134.664 285.84C134.885 285.308 135.258 284.853 135.737 284.533C136.215 284.213 136.778 284.042 137.354 284.042C138.126 284.042 138.866 284.349 139.412 284.895C139.958 285.441 140.265 286.182 140.265 286.955Z" fill="#24A7FF"/>
<path d="M126.076 286.955C126.076 287.531 125.905 288.094 125.585 288.573C125.265 289.052 124.811 289.426 124.279 289.646C123.747 289.867 123.162 289.924 122.597 289.812C122.032 289.699 121.514 289.422 121.106 289.015C120.699 288.607 120.422 288.088 120.31 287.523C120.198 286.958 120.255 286.372 120.475 285.84C120.696 285.308 121.069 284.853 121.548 284.533C122.026 284.213 122.589 284.042 123.165 284.042C123.937 284.042 124.677 284.349 125.223 284.895C125.769 285.441 126.076 286.182 126.076 286.955Z" fill="white"/>
<path d="M183.319 248.938C183.319 249.611 183.12 250.268 182.746 250.827C182.373 251.387 181.842 251.822 181.221 252.08C180.6 252.337 179.917 252.405 179.258 252.273C178.599 252.142 177.993 251.818 177.518 251.343C177.043 250.867 176.719 250.261 176.588 249.601C176.457 248.942 176.524 248.258 176.781 247.637C177.038 247.015 177.474 246.484 178.033 246.11C178.592 245.737 179.249 245.537 179.921 245.537C180.822 245.537 181.686 245.896 182.324 246.533C182.961 247.171 183.319 248.036 183.319 248.938Z" fill="#24A7FF"/>
<path d="M168.643 248.938C168.643 249.514 168.472 250.077 168.152 250.556C167.832 251.035 167.378 251.409 166.846 251.629C166.314 251.85 165.728 251.907 165.164 251.795C164.599 251.683 164.08 251.405 163.673 250.998C163.266 250.59 162.989 250.071 162.877 249.506C162.764 248.941 162.822 248.356 163.042 247.823C163.263 247.291 163.636 246.836 164.114 246.516C164.593 246.196 165.156 246.025 165.732 246.025C166.504 246.025 167.244 246.332 167.79 246.878C168.336 247.425 168.643 248.165 168.643 248.938Z" fill="white"/>
<path d="M154.454 248.938C154.454 249.514 154.283 250.077 153.963 250.556C153.643 251.035 153.189 251.409 152.657 251.629C152.125 251.85 151.54 251.907 150.975 251.795C150.41 251.683 149.892 251.405 149.484 250.998C149.077 250.59 148.8 250.071 148.688 249.506C148.575 248.941 148.633 248.356 148.853 247.823C149.074 247.291 149.447 246.836 149.926 246.516C150.404 246.196 150.967 246.025 151.543 246.025C152.315 246.025 153.055 246.332 153.601 246.878C154.147 247.425 154.454 248.165 154.454 248.938Z" fill="white"/>
<path d="M140.265 248.938C140.265 249.514 140.094 250.077 139.774 250.556C139.454 251.035 139 251.409 138.468 251.629C137.936 251.85 137.351 251.907 136.786 251.795C136.221 251.683 135.703 251.405 135.295 250.998C134.888 250.59 134.611 250.071 134.499 249.506C134.386 248.941 134.444 248.356 134.664 247.823C134.885 247.291 135.258 246.836 135.737 246.516C136.215 246.196 136.778 246.025 137.354 246.025C138.126 246.025 138.866 246.332 139.412 246.878C139.958 247.425 140.265 248.165 140.265 248.938Z" fill="#24A7FF"/>
<path d="M126.076 248.938C126.076 249.514 125.905 250.077 125.585 250.556C125.265 251.035 124.811 251.409 124.279 251.629C123.747 251.85 123.162 251.907 122.597 251.795C122.032 251.683 121.514 251.405 121.106 250.998C120.699 250.59 120.422 250.071 120.31 249.506C120.198 248.941 120.255 248.356 120.475 247.823C120.696 247.291 121.069 246.836 121.548 246.516C122.026 246.196 122.589 246.025 123.165 246.025C123.937 246.025 124.677 246.332 125.223 246.878C125.769 247.425 126.076 248.165 126.076 248.938Z" fill="#24A7FF"/>
<path d="M346.275 289.597C346.281 282.651 344.073 275.885 339.973 270.281C335.873 264.677 330.094 260.528 323.476 258.435C322.811 253.243 320.832 248.307 317.728 244.094C314.624 239.881 310.496 236.53 305.736 234.359C300.976 232.189 295.741 231.27 290.527 231.689C285.313 232.109 280.292 233.854 275.94 236.758C271.589 233.853 266.569 232.108 261.355 231.688C256.142 231.268 250.907 232.187 246.148 234.358C241.389 236.529 237.262 239.88 234.16 244.093C231.057 248.307 229.08 253.244 228.418 258.435C220.983 260.775 214.632 265.702 210.514 272.324C206.395 278.945 204.783 286.823 205.968 294.531C207.152 302.24 211.056 309.269 216.973 314.346C222.889 319.422 230.426 322.211 238.22 322.208H314.391C322.911 322.023 331.021 318.506 336.981 312.411C342.941 306.315 346.277 298.125 346.275 289.597Z" fill="#24A7FF"/>
<path d="M275.669 236.568C271.308 233.724 266.296 232.035 261.104 231.661C255.912 231.286 250.71 232.238 245.987 234.426C241.263 236.615 237.173 239.969 234.1 244.174C231.026 248.378 229.071 253.295 228.418 258.463C220.983 260.803 214.632 265.73 210.514 272.351C206.395 278.972 204.783 286.85 205.968 294.559C207.152 302.267 211.056 309.296 216.973 314.373C222.889 319.45 230.426 322.239 238.22 322.235H261.169L275.669 236.568Z" fill="#3BB0FF"/>
<path d="M328.864 358.314H223.49V366.159H328.864V358.314Z" fill="#3D4959"/>
<path d="M328.864 320.297H223.49V328.142H328.864V320.297Z" fill="#3D4959"/>
<path d="M333.576 364.221H218.318C215.319 364.221 212.889 366.654 212.889 369.654V394.055C212.889 397.055 215.319 399.488 218.318 399.488H333.576C336.574 399.488 339.005 397.055 339.005 394.055V369.654C339.005 366.654 336.574 364.221 333.576 364.221Z" fill="#D6E0EA"/>
<path d="M265.231 364.221L259.49 399.447H218.331C216.895 399.447 215.517 398.876 214.502 397.86C213.486 396.843 212.916 395.465 212.916 394.028V369.641C212.916 368.203 213.486 366.825 214.502 365.808C215.517 364.792 216.895 364.221 218.331 364.221H265.231Z" fill="#EDEDED"/>
<path d="M331.233 391.738V371.998H220.633V391.738H331.233Z" fill="#3D4959"/>
<path d="M322.514 381.861C322.504 382.531 322.295 383.184 321.916 383.736C321.536 384.288 321.001 384.715 320.38 384.964C319.758 385.213 319.076 385.273 318.421 385.136C317.765 384.998 317.165 384.67 316.695 384.193C316.225 383.715 315.906 383.109 315.78 382.451C315.653 381.793 315.723 381.112 315.982 380.494C316.241 379.875 316.676 379.347 317.234 378.976C317.792 378.605 318.446 378.407 319.116 378.406C319.567 378.406 320.013 378.496 320.429 378.67C320.845 378.845 321.222 379.1 321.538 379.422C321.855 379.743 322.104 380.124 322.272 380.543C322.439 380.962 322.522 381.41 322.514 381.861Z" fill="#24A7FF"/>
<path d="M307.838 381.861C307.838 382.437 307.667 383 307.347 383.479C307.028 383.959 306.573 384.332 306.041 384.552C305.509 384.773 304.924 384.83 304.359 384.718C303.794 384.606 303.276 384.328 302.869 383.921C302.462 383.514 302.184 382.994 302.072 382.429C301.96 381.864 302.017 381.279 302.238 380.746C302.458 380.214 302.831 379.759 303.31 379.439C303.789 379.119 304.351 378.948 304.927 378.948C305.699 378.948 306.439 379.255 306.985 379.801C307.531 380.348 307.838 381.089 307.838 381.861Z" fill="#24A7FF"/>
<path d="M293.663 381.861C293.663 382.437 293.492 383 293.172 383.479C292.852 383.959 292.398 384.332 291.866 384.552C291.334 384.773 290.748 384.83 290.184 384.718C289.619 384.606 289.101 384.328 288.693 383.921C288.286 383.514 288.009 382.994 287.897 382.429C287.784 381.864 287.842 381.279 288.062 380.746C288.283 380.214 288.656 379.759 289.135 379.439C289.613 379.119 290.176 378.948 290.752 378.948C291.524 378.948 292.264 379.255 292.81 379.801C293.356 380.348 293.663 381.089 293.663 381.861Z" fill="white"/>
<path d="M279.46 381.861C279.46 382.437 279.289 383 278.969 383.479C278.65 383.959 278.195 384.332 277.663 384.552C277.131 384.773 276.546 384.83 275.981 384.718C275.417 384.606 274.898 384.328 274.491 383.921C274.084 383.514 273.806 382.994 273.694 382.429C273.582 381.864 273.639 381.279 273.86 380.746C274.08 380.214 274.453 379.759 274.932 379.439C275.411 379.119 275.973 378.948 276.549 378.948C277.321 378.948 278.062 379.255 278.607 379.801C279.153 380.348 279.46 381.089 279.46 381.861Z" fill="#24A7FF"/>
<path d="M265.23 381.861C265.23 382.437 265.06 383 264.74 383.479C264.42 383.959 263.965 384.332 263.434 384.552C262.902 384.773 262.316 384.83 261.752 384.718C261.187 384.606 260.668 384.328 260.261 383.921C259.854 383.514 259.577 382.994 259.465 382.429C259.352 381.864 259.41 381.279 259.63 380.746C259.851 380.214 260.224 379.759 260.702 379.439C261.181 379.119 261.744 378.948 262.32 378.948C263.092 378.948 263.832 379.255 264.378 379.801C264.924 380.348 265.23 381.089 265.23 381.861Z" fill="white"/>
<path d="M333.576 325.595H218.318C215.319 325.595 212.889 328.027 212.889 331.028V355.428C212.889 358.429 215.319 360.861 218.318 360.861H333.576C336.574 360.861 339.005 358.429 339.005 355.428V331.028C339.005 328.027 336.574 325.595 333.576 325.595Z" fill="#D6E0EA"/>
<path d="M271.499 325.568L265.772 360.793H218.317C216.881 360.793 215.504 360.222 214.488 359.206C213.472 358.19 212.902 356.811 212.902 355.374V330.987C212.902 329.55 213.472 328.171 214.488 327.155C215.504 326.139 216.881 325.568 218.317 325.568H271.499Z" fill="#EDEDED"/>
<path d="M331.247 353.098V333.358H220.646V353.098H331.247Z" fill="#3D4959"/>
<path d="M333.576 287.578H218.318C215.319 287.578 212.889 290.011 212.889 293.011V317.412C212.889 320.412 215.319 322.845 218.318 322.845H333.576C336.574 322.845 339.005 320.412 339.005 317.412V293.011C339.005 290.011 336.574 287.578 333.576 287.578Z" fill="#D6E0EA"/>
<path d="M277.7 287.632L272 322.858H218.317C216.881 322.858 215.504 322.287 214.488 321.271C213.472 320.255 212.902 318.876 212.902 317.439V293.052C212.902 291.614 213.472 290.236 214.488 289.22C215.504 288.203 216.881 287.632 218.317 287.632H277.7Z" fill="#EDEDED"/>
<path d="M331.233 315.081V295.341H220.633V315.081H331.233Z" fill="#3D4959"/>
<path d="M322.514 343.181C322.514 343.853 322.315 344.511 321.942 345.07C321.568 345.629 321.038 346.065 320.417 346.323C319.796 346.58 319.112 346.647 318.453 346.516C317.794 346.385 317.188 346.061 316.713 345.585C316.238 345.11 315.914 344.504 315.783 343.844C315.652 343.184 315.719 342.501 315.976 341.879C316.234 341.258 316.669 340.727 317.228 340.353C317.787 339.98 318.444 339.78 319.116 339.78C319.563 339.778 320.006 339.865 320.419 340.035C320.832 340.206 321.207 340.456 321.523 340.772C321.839 341.088 322.089 341.464 322.259 341.877C322.43 342.291 322.516 342.734 322.514 343.181Z" fill="#24A7FF"/>
<path d="M307.838 343.181C307.838 343.757 307.667 344.32 307.347 344.799C307.028 345.278 306.573 345.651 306.041 345.872C305.509 346.092 304.924 346.15 304.359 346.038C303.794 345.925 303.276 345.648 302.869 345.24C302.462 344.833 302.184 344.314 302.072 343.749C301.96 343.184 302.017 342.598 302.238 342.066C302.458 341.534 302.831 341.079 303.31 340.759C303.789 340.439 304.351 340.268 304.927 340.268C305.699 340.268 306.439 340.575 306.985 341.121C307.531 341.667 307.838 342.408 307.838 343.181Z" fill="#24A7FF"/>
<path d="M293.663 343.181C293.663 343.757 293.492 344.32 293.172 344.799C292.852 345.278 292.398 345.651 291.866 345.872C291.334 346.092 290.748 346.15 290.184 346.038C289.619 345.925 289.101 345.648 288.693 345.24C288.286 344.833 288.009 344.314 287.897 343.749C287.784 343.184 287.842 342.598 288.062 342.066C288.283 341.534 288.656 341.079 289.135 340.759C289.613 340.439 290.176 340.268 290.752 340.268C291.524 340.268 292.264 340.575 292.81 341.121C293.356 341.667 293.663 342.408 293.663 343.181Z" fill="white"/>
<path d="M279.46 343.181C279.46 343.757 279.289 344.32 278.969 344.799C278.65 345.278 278.195 345.651 277.663 345.872C277.131 346.092 276.546 346.15 275.981 346.038C275.417 345.925 274.898 345.648 274.491 345.24C274.084 344.833 273.806 344.314 273.694 343.749C273.582 343.184 273.639 342.598 273.86 342.066C274.08 341.534 274.453 341.079 274.932 340.759C275.411 340.439 275.973 340.268 276.549 340.268C277.321 340.268 278.062 340.575 278.607 341.121C279.153 341.667 279.46 342.408 279.46 343.181Z" fill="#24A7FF"/>
<path d="M265.23 343.181C265.23 343.757 265.06 344.32 264.74 344.799C264.42 345.278 263.965 345.651 263.434 345.872C262.902 346.092 262.316 346.15 261.752 346.038C261.187 345.925 260.668 345.648 260.261 345.24C259.854 344.833 259.577 344.314 259.465 343.749C259.352 343.184 259.41 342.598 259.63 342.066C259.851 341.534 260.224 341.079 260.702 340.759C261.181 340.439 261.744 340.268 262.32 340.268C263.092 340.268 263.832 340.575 264.378 341.121C264.924 341.667 265.23 342.408 265.23 343.181Z" fill="white"/>
<path d="M322.514 305.245C322.514 305.918 322.315 306.575 321.942 307.134C321.568 307.694 321.038 308.13 320.417 308.387C319.796 308.644 319.112 308.712 318.453 308.58C317.794 308.449 317.188 308.125 316.713 307.65C316.238 307.174 315.914 306.568 315.783 305.909C315.652 305.249 315.719 304.565 315.976 303.944C316.234 303.322 316.669 302.791 317.228 302.418C317.787 302.044 318.444 301.844 319.116 301.844C320.017 301.844 320.882 302.203 321.519 302.841C322.156 303.478 322.514 304.343 322.514 305.245Z" fill="#24A7FF"/>
<path d="M307.838 305.245C307.838 305.821 307.667 306.384 307.347 306.864C307.028 307.343 306.573 307.716 306.041 307.936C305.509 308.157 304.924 308.214 304.359 308.102C303.794 307.99 303.276 307.712 302.869 307.305C302.462 306.898 302.184 306.378 302.072 305.813C301.96 305.248 302.017 304.663 302.238 304.13C302.458 303.598 302.831 303.143 303.31 302.823C303.789 302.503 304.351 302.332 304.927 302.332C305.699 302.332 306.439 302.639 306.985 303.185C307.531 303.732 307.838 304.473 307.838 305.245Z" fill="white"/>
<path d="M293.663 305.245C293.663 305.821 293.492 306.384 293.172 306.864C292.852 307.343 292.398 307.716 291.866 307.936C291.334 308.157 290.748 308.214 290.184 308.102C289.619 307.99 289.101 307.712 288.693 307.305C288.286 306.898 288.009 306.378 287.897 305.813C287.784 305.248 287.842 304.663 288.062 304.13C288.283 303.598 288.656 303.143 289.135 302.823C289.613 302.503 290.176 302.332 290.752 302.332C291.524 302.332 292.264 302.639 292.81 303.185C293.356 303.732 293.663 304.473 293.663 305.245Z" fill="white"/>
<path d="M279.46 305.245C279.46 305.821 279.289 306.384 278.969 306.864C278.65 307.343 278.195 307.716 277.663 307.936C277.131 308.157 276.546 308.214 275.981 308.102C275.417 307.99 274.898 307.712 274.491 307.305C274.084 306.898 273.806 306.378 273.694 305.813C273.582 305.248 273.639 304.663 273.86 304.13C274.08 303.598 274.453 303.143 274.932 302.823C275.411 302.503 275.973 302.332 276.549 302.332C277.321 302.332 278.062 302.639 278.607 303.185C279.153 303.732 279.46 304.473 279.46 305.245Z" fill="#24A7FF"/>
<path d="M265.23 305.245C265.23 305.821 265.06 306.384 264.74 306.864C264.42 307.343 263.965 307.716 263.434 307.936C262.902 308.157 262.316 308.214 261.752 308.102C261.187 307.99 260.668 307.712 260.261 307.305C259.854 306.898 259.577 306.378 259.465 305.813C259.352 305.248 259.41 304.663 259.63 304.13C259.851 303.598 260.224 303.143 260.702 302.823C261.181 302.503 261.744 302.332 262.32 302.332C263.092 302.332 263.832 302.639 264.378 303.185C264.924 303.732 265.23 304.473 265.23 305.245Z" fill="#24A7FF"/>
<path d="M544 280.858C543.999 272.068 541.199 263.507 536.006 256.418C530.813 249.328 523.497 244.079 515.121 241.432C514.285 234.852 511.784 228.595 507.855 223.253C503.926 217.911 498.7 213.661 492.67 210.905C486.641 208.149 480.009 206.98 473.401 207.506C466.794 208.033 460.43 210.239 454.913 213.916C449.397 210.239 443.034 208.032 436.427 207.505C429.82 206.978 423.188 208.148 417.16 210.904C411.131 213.659 405.906 217.91 401.979 223.253C398.051 228.595 395.552 234.853 394.718 241.432C385.316 244.408 377.288 250.651 372.084 259.033C366.881 267.416 364.846 277.384 366.347 287.137C367.848 296.89 372.787 305.784 380.27 312.211C387.752 318.638 397.286 322.174 407.147 322.181H503.599C514.395 321.943 524.668 317.486 532.219 309.762C539.77 302.039 543.999 291.663 544 280.858Z" fill="#24A7FF"/>
<path d="M454.574 213.753C449.05 210.153 442.701 208.016 436.125 207.542C429.549 207.069 422.961 208.275 416.978 211.047C410.995 213.819 405.814 218.066 401.921 223.391C398.027 228.715 395.549 234.941 394.718 241.487C385.316 244.462 377.288 250.705 372.084 259.088C366.881 267.47 364.846 277.439 366.347 287.191C367.848 296.944 372.787 305.838 380.27 312.265C387.752 318.692 397.286 322.229 407.147 322.235H436.161L454.574 213.753Z" fill="#3BB0FF"/>
<path d="M468.059 302.048H362.685V309.892H468.059V302.048Z" fill="#3D4959"/>
<path d="M468.059 264.017H362.685V271.862H468.059V264.017Z" fill="#3D4959"/>
<path d="M472.771 307.955H357.513C354.514 307.955 352.083 310.387 352.083 313.388V337.788C352.083 340.789 354.514 343.221 357.513 343.221H472.771C475.769 343.221 478.2 340.789 478.2 337.788V313.388C478.2 310.387 475.769 307.955 472.771 307.955Z" fill="#D6E0EA"/>
<path d="M404.426 307.955L398.672 343.181H357.513C356.076 343.181 354.699 342.61 353.683 341.593C352.668 340.577 352.097 339.199 352.097 337.761V313.374C352.097 311.937 352.668 310.558 353.683 309.542C354.699 308.526 356.076 307.955 357.513 307.955H404.426Z" fill="#EDEDED"/>
<path d="M470.442 335.458V315.718H359.842V335.458H470.442Z" fill="#3D4959"/>
<path d="M461.71 325.568C461.712 326.241 461.515 326.9 461.144 327.461C460.772 328.022 460.242 328.46 459.621 328.719C459.001 328.979 458.317 329.048 457.657 328.918C456.997 328.789 456.39 328.466 455.913 327.991C455.437 327.516 455.112 326.91 454.979 326.25C454.847 325.59 454.914 324.905 455.17 324.283C455.427 323.661 455.863 323.129 456.422 322.755C456.981 322.38 457.639 322.181 458.311 322.181C459.21 322.181 460.073 322.537 460.71 323.172C461.346 323.807 461.706 324.668 461.71 325.568Z" fill="#24A7FF"/>
<path d="M444.122 328.508C445.73 328.508 447.033 327.204 447.033 325.595C447.033 323.986 445.73 322.682 444.122 322.682C442.515 322.682 441.211 323.986 441.211 325.595C441.211 327.204 442.515 328.508 444.122 328.508Z" fill="#24A7FF"/>
<path d="M432.844 325.568C432.844 326.144 432.674 326.707 432.354 327.186C432.034 327.665 431.579 328.038 431.047 328.259C430.515 328.479 429.93 328.537 429.365 328.425C428.801 328.312 428.282 328.035 427.875 327.627C427.468 327.22 427.191 326.701 427.078 326.136C426.966 325.571 427.024 324.985 427.244 324.453C427.464 323.921 427.837 323.466 428.316 323.146C428.795 322.826 429.358 322.655 429.933 322.655C430.705 322.655 431.446 322.962 431.992 323.508C432.538 324.054 432.844 324.795 432.844 325.568Z" fill="white"/>
<path d="M418.655 325.568C418.655 326.144 418.485 326.707 418.165 327.186C417.845 327.665 417.39 328.038 416.858 328.259C416.326 328.479 415.741 328.537 415.177 328.425C414.612 328.312 414.093 328.035 413.686 327.627C413.279 327.22 413.002 326.701 412.889 326.136C412.777 325.571 412.835 324.985 413.055 324.453C413.275 323.921 413.648 323.466 414.127 323.146C414.606 322.826 415.169 322.655 415.744 322.655C416.516 322.655 417.257 322.962 417.803 323.508C418.349 324.054 418.655 324.795 418.655 325.568Z" fill="#24A7FF"/>
<path d="M404.466 325.568C404.466 326.144 404.296 326.707 403.976 327.186C403.656 327.665 403.201 328.038 402.669 328.259C402.137 328.479 401.552 328.537 400.988 328.425C400.423 328.312 399.904 328.035 399.497 327.627C399.09 327.22 398.813 326.701 398.7 326.136C398.588 325.571 398.646 324.985 398.866 324.453C399.086 323.921 399.46 323.466 399.938 323.146C400.417 322.826 400.98 322.655 401.555 322.655C402.327 322.655 403.068 322.962 403.614 323.508C404.16 324.054 404.466 324.795 404.466 325.568Z" fill="white"/>
<path d="M472.771 269.328H357.513C354.514 269.328 352.083 271.761 352.083 274.761V299.162C352.083 302.162 354.514 304.595 357.513 304.595H472.771C475.769 304.595 478.2 302.162 478.2 299.162V274.761C478.2 271.761 475.769 269.328 472.771 269.328Z" fill="#D6E0EA"/>
<path d="M410.708 269.328L404.967 304.554H357.581C356.144 304.554 354.767 303.983 353.751 302.967C352.736 301.951 352.165 300.572 352.165 299.135V274.748C352.165 273.31 352.736 271.932 353.751 270.916C354.767 269.899 356.144 269.328 357.581 269.328H410.708Z" fill="#EDEDED"/>
<path d="M470.442 296.832V277.092H359.842V296.832H470.442Z" fill="#3D4959"/>
<path d="M472.771 231.298H357.513C354.514 231.298 352.083 233.73 352.083 236.731V261.132C352.083 264.132 354.514 266.565 357.513 266.565H472.771C475.769 266.565 478.2 264.132 478.2 261.132V236.731C478.2 233.73 475.769 231.298 472.771 231.298Z" fill="#D6E0EA"/>
<path d="M416.868 231.298L411.128 266.524H357.513C356.076 266.524 354.699 265.953 353.683 264.937C352.668 263.92 352.097 262.542 352.097 261.105V236.717C352.097 235.28 352.668 233.902 353.683 232.885C354.699 231.869 356.076 231.298 357.513 231.298H416.868Z" fill="#EDEDED"/>
<path d="M470.442 258.801V239.061H359.842V258.801H470.442Z" fill="#3D4959"/>
<path d="M461.71 286.955C461.71 287.627 461.51 288.285 461.137 288.844C460.764 289.403 460.233 289.839 459.612 290.097C458.991 290.354 458.308 290.421 457.648 290.29C456.989 290.159 456.384 289.835 455.908 289.359C455.433 288.884 455.11 288.278 454.978 287.618C454.847 286.959 454.915 286.275 455.172 285.653C455.429 285.032 455.865 284.501 456.423 284.127C456.982 283.754 457.639 283.554 458.311 283.554C459.213 283.554 460.077 283.912 460.714 284.55C461.352 285.188 461.71 286.053 461.71 286.955Z" fill="#24A7FF"/>
<path d="M447.033 286.955C447.033 287.531 446.863 288.094 446.543 288.573C446.223 289.052 445.768 289.426 445.236 289.646C444.704 289.867 444.119 289.924 443.554 289.812C442.99 289.699 442.471 289.422 442.064 289.015C441.657 288.607 441.38 288.088 441.267 287.523C441.155 286.958 441.213 286.372 441.433 285.84C441.653 285.308 442.026 284.853 442.505 284.533C442.984 284.213 443.547 284.042 444.122 284.042C444.894 284.042 445.635 284.349 446.181 284.895C446.727 285.441 447.033 286.182 447.033 286.955Z" fill="#24A7FF"/>
<path d="M432.844 286.955C432.844 287.531 432.674 288.094 432.354 288.573C432.034 289.052 431.579 289.426 431.047 289.646C430.515 289.867 429.93 289.924 429.365 289.812C428.801 289.699 428.282 289.422 427.875 289.015C427.468 288.607 427.191 288.088 427.078 287.523C426.966 286.958 427.024 286.372 427.244 285.84C427.464 285.308 427.837 284.853 428.316 284.533C428.795 284.213 429.358 284.042 429.933 284.042C430.705 284.042 431.446 284.349 431.992 284.895C432.538 285.441 432.844 286.182 432.844 286.955Z" fill="white"/>
<path d="M418.655 286.955C418.655 287.531 418.485 288.094 418.165 288.573C417.845 289.052 417.39 289.426 416.858 289.646C416.326 289.867 415.741 289.924 415.177 289.812C414.612 289.699 414.093 289.422 413.686 289.015C413.279 288.607 413.002 288.088 412.889 287.523C412.777 286.958 412.835 286.372 413.055 285.84C413.275 285.308 413.648 284.853 414.127 284.533C414.606 284.213 415.169 284.042 415.744 284.042C416.516 284.042 417.257 284.349 417.803 284.895C418.349 285.441 418.655 286.182 418.655 286.955Z" fill="#24A7FF"/>
<path d="M404.466 286.955C404.466 287.531 404.296 288.094 403.976 288.573C403.656 289.052 403.201 289.426 402.669 289.646C402.137 289.867 401.552 289.924 400.988 289.812C400.423 289.699 399.904 289.422 399.497 289.015C399.09 288.607 398.813 288.088 398.7 287.523C398.588 286.958 398.646 286.372 398.866 285.84C399.086 285.308 399.46 284.853 399.938 284.533C400.417 284.213 400.98 284.042 401.555 284.042C402.327 284.042 403.068 284.349 403.614 284.895C404.16 285.441 404.466 286.182 404.466 286.955Z" fill="white"/>
<path d="M461.71 248.938C461.71 249.611 461.51 250.268 461.137 250.827C460.764 251.387 460.233 251.822 459.612 252.08C458.991 252.337 458.308 252.405 457.648 252.273C456.989 252.142 456.384 251.818 455.908 251.343C455.433 250.867 455.11 250.261 454.978 249.601C454.847 248.942 454.915 248.258 455.172 247.637C455.429 247.015 455.865 246.484 456.423 246.11C456.982 245.737 457.639 245.537 458.311 245.537C458.758 245.536 459.201 245.622 459.614 245.793C460.027 245.963 460.402 246.213 460.718 246.529C461.034 246.846 461.285 247.221 461.455 247.635C461.625 248.048 461.711 248.491 461.71 248.938Z" fill="#24A7FF"/>
<path d="M447.033 248.938C447.033 249.514 446.863 250.077 446.543 250.556C446.223 251.035 445.768 251.409 445.236 251.629C444.704 251.85 444.119 251.907 443.554 251.795C442.99 251.683 442.471 251.405 442.064 250.998C441.657 250.59 441.38 250.071 441.267 249.506C441.155 248.941 441.213 248.356 441.433 247.823C441.653 247.291 442.026 246.836 442.505 246.516C442.984 246.196 443.547 246.025 444.122 246.025C444.894 246.025 445.635 246.332 446.181 246.878C446.727 247.425 447.033 248.165 447.033 248.938Z" fill="white"/>
<path d="M432.844 248.938C432.844 249.514 432.674 250.077 432.354 250.556C432.034 251.035 431.579 251.409 431.047 251.629C430.515 251.85 429.93 251.907 429.365 251.795C428.801 251.683 428.282 251.405 427.875 250.998C427.468 250.59 427.191 250.071 427.078 249.506C426.966 248.941 427.024 248.356 427.244 247.823C427.464 247.291 427.837 246.836 428.316 246.516C428.795 246.196 429.358 246.025 429.933 246.025C430.705 246.025 431.446 246.332 431.992 246.878C432.538 247.425 432.844 248.165 432.844 248.938Z" fill="white"/>
<path d="M418.655 248.938C418.655 249.514 418.485 250.077 418.165 250.556C417.845 251.035 417.39 251.409 416.858 251.629C416.326 251.85 415.741 251.907 415.177 251.795C414.612 251.683 414.093 251.405 413.686 250.998C413.279 250.59 413.002 250.071 412.889 249.506C412.777 248.941 412.835 248.356 413.055 247.823C413.275 247.291 413.648 246.836 414.127 246.516C414.606 246.196 415.169 246.025 415.744 246.025C416.516 246.025 417.257 246.332 417.803 246.878C418.349 247.425 418.655 248.165 418.655 248.938Z" fill="#24A7FF"/>
<path d="M404.466 248.938C404.466 249.514 404.296 250.077 403.976 250.556C403.656 251.035 403.201 251.409 402.669 251.629C402.137 251.85 401.552 251.907 400.988 251.795C400.423 251.683 399.904 251.405 399.497 250.998C399.09 250.59 398.813 250.071 398.7 249.506C398.588 248.941 398.646 248.356 398.866 247.823C399.086 247.291 399.46 246.836 399.938 246.516C400.417 246.196 400.98 246.025 401.555 246.025C402.327 246.025 403.068 246.332 403.614 246.878C404.16 247.425 404.466 248.165 404.466 248.938Z" fill="#24A7FF"/>
<path d="M183.942 -5.18924e-05H367.951C371.115 -5.18924e-05 374.149 1.2575 376.386 3.49596C378.623 5.73442 379.879 8.77042 379.879 11.9361V122.247C379.879 126.02 378.382 129.638 375.716 132.306C373.05 134.974 369.434 136.473 365.663 136.473H186.23C184.357 136.482 182.502 136.12 180.769 135.409C179.036 134.699 177.461 133.652 176.134 132.33C174.807 131.008 173.754 129.437 173.035 127.707C172.316 125.976 171.946 124.121 171.946 122.247V11.9361C171.946 10.3629 172.257 8.80521 172.861 7.35262C173.464 5.90003 174.349 4.58118 175.464 3.47192C176.579 2.36266 177.902 1.48486 179.357 0.889015C180.811 0.293167 182.37 -0.00898033 183.942 -5.18924e-05Z" fill="#3BB0FF"/>
<path opacity="0.2" d="M274.126 7.70726e-06H183.996C182.429 -0.0017751 180.878 0.305751 179.43 0.904967C177.982 1.50418 176.666 2.38332 175.558 3.49205C174.45 4.60078 173.571 5.91732 172.973 7.36628C172.374 8.81524 172.067 10.3682 172.068 11.9361V122.247C172.072 126.018 173.571 129.633 176.237 132.298C178.903 134.962 182.516 136.459 186.284 136.459H246.682L274.126 7.70726e-06Z" fill="white"/>
<path d="M171.946 22.4631H379.879V147C379.879 150.166 378.623 153.202 376.386 155.44C374.149 157.678 371.115 158.936 367.951 158.936H183.942C182.37 158.945 180.811 158.643 179.357 158.047C177.902 157.451 176.579 156.573 175.464 155.464C174.349 154.355 173.464 153.036 172.861 151.583C172.257 150.131 171.946 148.573 171.946 147V22.4631Z" fill="#D6E0EA"/>
<path d="M374.193 22.4631V147C374.193 147.829 374.03 148.65 373.713 149.416C373.396 150.182 372.931 150.878 372.345 151.464C371.759 152.051 371.064 152.516 370.298 152.833C369.533 153.15 368.712 153.313 367.884 153.313H183.928C183.1 153.313 182.279 153.15 181.514 152.833C180.748 152.516 180.053 152.051 179.467 151.464C178.881 150.878 178.416 150.182 178.099 149.416C177.782 148.65 177.619 147.829 177.619 147V22.4631L374.193 22.4631Z" fill="#F3F9FF"/>
<path d="M312.861 114.213V102.019L304.467 100.827C303.816 98.1022 302.743 95.4963 301.285 93.1045L306.349 86.3303L297.724 77.6323L290.955 82.7129C288.571 81.2509 285.971 80.1763 283.251 79.529L282.046 71.1697H269.861L268.656 79.529C265.936 80.1763 263.336 81.2509 260.952 82.7129L254.183 77.6323L245.504 86.3168L250.581 93.091C249.101 95.4713 248.026 98.0809 247.4 100.814L239.046 102.006V114.199L247.4 115.405C248.036 118.147 249.11 120.769 250.581 123.168L245.504 129.943L254.183 138.586L260.952 133.506C263.322 135.003 265.926 136.093 268.656 136.73L269.861 145.09H282.046L283.251 136.73C285.981 136.093 288.584 135.003 290.955 133.506L297.724 138.586L306.349 129.943L301.285 123.168C302.727 120.773 303.799 118.174 304.467 115.459L312.861 114.213ZM275.94 126.596C272.283 126.599 268.707 125.516 265.666 123.484C262.624 121.452 260.254 118.563 258.854 115.183C257.454 111.802 257.087 108.082 257.801 104.493C258.515 100.904 260.276 97.6075 262.863 95.0209C265.45 92.4342 268.745 90.6737 272.333 89.9621C275.92 89.2505 279.637 89.6198 283.014 91.0233C286.392 92.4268 289.277 94.8013 291.305 97.8464C293.333 100.892 294.413 104.47 294.407 108.13C294.405 110.553 293.926 112.953 292.997 115.191C292.067 117.43 290.706 119.463 288.991 121.174C287.276 122.885 285.24 124.241 283.001 125.165C280.761 126.088 278.362 126.561 275.94 126.555V126.596Z" fill="#425160"/>
<path d="M275.886 126.555C270.984 126.555 266.284 124.607 262.818 121.139C259.352 117.671 257.405 112.967 257.405 108.062C257.405 103.157 259.352 98.4532 262.818 94.985C266.284 91.5168 270.984 89.5684 275.886 89.5684V71.1426H269.807L268.602 79.5019C265.882 80.1492 263.282 81.2238 260.898 82.6858L254.128 77.6051L245.45 86.2897L250.527 93.0639C249.047 95.4442 247.972 98.0538 247.345 100.786L238.992 101.979V114.172L247.345 115.378C247.981 118.12 249.056 120.742 250.527 123.141L245.45 129.915L254.128 138.559L260.898 133.479C263.268 134.976 265.872 136.066 268.602 136.703L269.807 145.063H275.886V126.555Z" fill="#3D4959"/>
<path d="M358.258 64.8562V56.131L352.26 55.2775C351.806 53.3342 351.043 51.4768 349.999 49.7768L353.614 44.9807L347.467 38.7891L342.633 42.4065C340.932 41.363 339.077 40.5948 337.137 40.1304L336.284 34.1826H327.51L326.657 40.1304C324.717 40.5948 322.862 41.363 321.16 42.4065L316.368 38.7891L310.18 44.9807L313.795 49.7768C312.735 51.4705 311.967 53.3297 311.521 55.2775L305.563 56.131V64.8562L311.521 65.7097C311.971 67.6644 312.74 69.5318 313.795 71.2375L310.18 76.0471L316.368 82.1981L321.16 78.5807C322.852 79.6497 324.71 80.4282 326.657 80.8839L327.51 86.8452H336.229L337.082 80.8839C339.03 80.4282 340.888 79.6497 342.579 78.5807L347.413 82.1981L353.559 76.0471L349.945 71.2104C350.977 69.5046 351.74 67.6491 352.206 65.7097L358.258 64.8562ZM331.938 73.6762C329.331 73.6789 326.782 72.9076 324.614 71.4602C322.445 70.0127 320.755 67.954 319.756 65.5446C318.757 63.1353 318.495 60.4836 319.003 57.9251C319.511 55.3667 320.766 53.0165 322.609 51.1721C324.452 49.3277 326.801 48.0719 329.357 47.5637C331.914 47.0554 334.564 47.3176 336.972 48.3171C339.379 49.3165 341.437 51.0083 342.883 53.1782C344.33 55.3481 345.1 57.8987 345.098 60.5071C345.101 62.2375 344.763 63.9516 344.103 65.5509C343.443 67.1503 342.474 68.6034 341.251 69.827C340.028 71.0506 338.576 72.0205 336.978 72.681C335.38 73.3416 333.667 73.6797 331.938 73.6762Z" fill="#41566D"/>
<path d="M250.31 29.3323H184.673V34.7923H250.31V29.3323Z" fill="#D6E0EA"/>
<path d="M250.31 42.2302H184.673V47.6902H250.31V42.2302Z" fill="#D6E0EA"/>
<path d="M250.31 55.1284H184.673V60.5884H250.31V55.1284Z" fill="#D6E0EA"/>
<path d="M236.121 68.0264H184.673V73.4864H236.121V68.0264Z" fill="#D6E0EA"/>
<path d="M236.121 80.9246H184.673V86.3846H236.121V80.9246Z" fill="#D6E0EA"/>
<path d="M330.678 11.4348C330.681 12.3438 330.414 13.2331 329.912 13.9902C329.409 14.7473 328.693 15.3381 327.855 15.6878C327.016 16.0375 326.093 16.1304 325.202 15.9547C324.31 15.779 323.491 15.3426 322.848 14.7009C322.205 14.0591 321.766 13.2407 321.588 12.3494C321.41 11.4581 321.5 10.5339 321.847 9.69391C322.194 8.85388 322.782 8.13575 323.537 7.63048C324.292 7.1252 325.18 6.85549 326.089 6.85549C326.691 6.85371 327.287 6.97083 327.844 7.20016C328.401 7.4295 328.907 7.76653 329.333 8.19194C329.76 8.61735 330.098 9.12279 330.329 9.67927C330.56 10.2357 330.678 10.8323 330.678 11.4348Z" fill="white"/>
<path d="M349.376 11.4348C349.376 12.3405 349.108 13.2259 348.605 13.979C348.102 14.732 347.387 15.319 346.551 15.6656C345.715 16.0122 344.795 16.1029 343.907 15.9262C343.019 15.7495 342.204 15.3133 341.564 14.6729C340.924 14.0325 340.488 13.2165 340.312 12.3282C340.135 11.4399 340.226 10.5191 340.572 9.68237C340.918 8.84561 341.505 8.13042 342.257 7.62723C343.01 7.12404 343.895 6.85547 344.8 6.85547C346.014 6.85547 347.178 7.33794 348.036 8.19674C348.894 9.05553 349.376 10.2203 349.376 11.4348Z" fill="white"/>
<path d="M368.128 11.4348C368.128 12.3405 367.859 13.2259 367.356 13.979C366.853 14.732 366.139 15.319 365.303 15.6656C364.466 16.0122 363.546 16.1029 362.659 15.9262C361.771 15.7495 360.955 15.3133 360.315 14.6729C359.675 14.0325 359.24 13.2165 359.063 12.3282C358.886 11.4399 358.977 10.5191 359.323 9.68237C359.67 8.84561 360.256 8.13042 361.009 7.62723C361.761 7.12404 362.646 6.85547 363.551 6.85547C364.765 6.85547 365.929 7.33794 366.787 8.19674C367.645 9.05553 368.128 10.2203 368.128 11.4348Z" fill="white"/>
<path d="M320.335 139.264C320.335 139.987 320.12 140.695 319.718 141.296C319.317 141.898 318.746 142.367 318.078 142.643C317.41 142.92 316.675 142.993 315.966 142.852C315.257 142.71 314.605 142.362 314.094 141.85C313.583 141.339 313.235 140.687 313.094 139.977C312.953 139.268 313.025 138.532 313.302 137.864C313.578 137.195 314.047 136.624 314.648 136.222C315.249 135.82 315.956 135.606 316.679 135.606C317.649 135.606 318.578 135.991 319.264 136.677C319.949 137.363 320.335 138.294 320.335 139.264Z" fill="#24A7FF"/>
<path d="M336.148 139.264C336.151 139.991 335.938 140.702 335.536 141.307C335.135 141.913 334.563 142.386 333.893 142.666C333.222 142.946 332.484 143.02 331.772 142.88C331.059 142.74 330.404 142.391 329.89 141.878C329.375 141.365 329.024 140.711 328.882 139.999C328.739 139.286 328.811 138.547 329.088 137.875C329.365 137.204 329.836 136.629 330.439 136.225C331.043 135.821 331.753 135.606 332.479 135.606C333.45 135.606 334.381 135.991 335.069 136.676C335.756 137.362 336.145 138.292 336.148 139.264Z" fill="#24A7FF"/>
<path d="M353.451 139.264C353.454 140.289 353.153 141.291 352.585 142.144C352.018 142.998 351.21 143.663 350.265 144.056C349.319 144.45 348.278 144.554 347.274 144.354C346.269 144.155 345.346 143.662 344.622 142.937C343.898 142.213 343.405 141.289 343.206 140.284C343.007 139.279 343.111 138.237 343.504 137.291C343.897 136.344 344.562 135.536 345.414 134.969C346.267 134.401 347.269 134.099 348.293 134.102C349.661 134.102 350.973 134.646 351.94 135.614C352.908 136.582 353.451 137.895 353.451 139.264Z" fill="#24A7FF"/>
<path d="M367.762 139.264C367.765 139.991 367.552 140.702 367.15 141.307C366.749 141.913 366.177 142.386 365.506 142.666C364.836 142.946 364.098 143.02 363.385 142.88C362.673 142.74 362.018 142.391 361.503 141.878C360.989 141.365 360.638 140.711 360.495 139.999C360.353 139.286 360.425 138.547 360.702 137.875C360.979 137.204 361.449 136.629 362.053 136.225C362.657 135.821 363.367 135.606 364.093 135.606C365.064 135.606 365.995 135.991 366.683 136.676C367.37 137.362 367.758 138.292 367.762 139.264Z" fill="#24A7FF"/>
<path d="M191.456 139.264C191.459 139.991 191.246 140.702 190.844 141.307C190.443 141.913 189.87 142.386 189.2 142.666C188.53 142.946 187.792 143.02 187.079 142.88C186.367 142.74 185.712 142.391 185.197 141.878C184.683 141.365 184.332 140.711 184.189 139.999C184.046 139.286 184.118 138.547 184.396 137.875C184.673 137.204 185.143 136.629 185.747 136.225C186.351 135.821 187.06 135.606 187.787 135.606C188.758 135.606 189.689 135.991 190.376 136.676C191.064 137.362 191.452 138.292 191.456 139.264Z" fill="#24A7FF"/>
<path d="M207.256 139.264C207.256 139.987 207.042 140.695 206.64 141.296C206.238 141.898 205.667 142.367 204.999 142.643C204.331 142.92 203.596 142.993 202.887 142.852C202.178 142.71 201.527 142.362 201.016 141.85C200.504 141.339 200.156 140.687 200.015 139.977C199.874 139.268 199.946 138.532 200.223 137.864C200.5 137.195 200.968 136.624 201.569 136.222C202.171 135.82 202.877 135.606 203.6 135.606C204.57 135.606 205.5 135.991 206.185 136.677C206.871 137.363 207.256 138.294 207.256 139.264Z" fill="#24A7FF"/>
<path d="M223.056 139.264C223.056 139.987 222.842 140.695 222.44 141.296C222.038 141.898 221.468 142.367 220.8 142.643C220.132 142.92 219.397 142.993 218.688 142.852C217.978 142.71 217.327 142.362 216.816 141.85C216.305 141.339 215.956 140.687 215.815 139.977C215.674 139.268 215.747 138.532 216.023 137.864C216.3 137.195 216.769 136.624 217.37 136.222C217.971 135.82 218.678 135.606 219.401 135.606C220.37 135.606 221.3 135.991 221.986 136.677C222.671 137.363 223.056 138.294 223.056 139.264Z" fill="#24A7FF"/>
<path d="M238.87 139.264C238.873 139.991 238.659 140.703 238.257 141.309C237.855 141.915 237.282 142.387 236.611 142.667C235.94 142.946 235.201 143.02 234.488 142.879C233.775 142.738 233.12 142.388 232.606 141.874C232.092 141.359 231.743 140.704 231.602 139.99C231.46 139.277 231.534 138.537 231.814 137.866C232.093 137.195 232.565 136.621 233.171 136.219C233.776 135.816 234.488 135.603 235.214 135.606C236.184 135.606 237.114 135.991 237.799 136.677C238.485 137.363 238.87 138.294 238.87 139.264Z" fill="#24A7FF"/>
<path d="M158.841 35.456V25.4167L151.949 24.4276C151.423 22.1942 150.545 20.0586 149.35 18.1005L153.506 12.5728L146.439 5.4599L140.861 9.61925C138.907 8.41343 136.772 7.5305 134.538 7.00442L133.563 0.148926H123.531L122.542 7.00442C120.31 7.53539 118.175 8.41801 116.22 9.61925L110.696 5.4599L103.588 12.5999L107.744 18.1276C106.532 20.0791 105.65 22.2166 105.131 24.4547L98.2803 25.4438V35.4831L105.131 36.4586C105.652 38.7087 106.534 40.8593 107.744 42.8263L103.588 48.3541L110.696 55.4399L116.22 51.2805C118.168 52.5014 120.304 53.3939 122.542 53.9225L123.531 60.7779H133.563L134.538 53.9225C136.777 53.3989 138.914 52.5061 140.861 51.2805L146.439 55.4399L153.506 48.3541L149.35 42.7857C150.537 40.8232 151.413 38.689 151.949 36.4586L158.841 35.456ZM128.567 43.0025C126.08 43.0051 123.649 42.2693 121.58 40.8882C119.512 39.5071 117.899 37.5429 116.947 35.2441C115.995 32.9454 115.746 30.4156 116.231 27.975C116.717 25.5345 117.915 23.293 119.674 21.5344C121.433 19.7758 123.675 18.5791 126.114 18.0959C128.554 17.6128 131.081 17.8649 133.377 18.8202C135.674 19.7756 137.635 21.3913 139.013 23.4628C140.391 25.5342 141.123 27.9682 141.118 30.4567C141.12 32.1058 140.796 33.7392 140.166 35.263C139.536 36.7868 138.611 38.1711 137.445 39.3367C136.279 40.5022 134.895 41.4259 133.371 42.055C131.848 42.6841 130.215 43.006 128.567 43.0025Z" fill="#E4EFF7"/>
<path d="M471.106 174.151V165.453L465.149 164.599C464.684 162.685 463.921 160.857 462.888 159.18L466.489 154.384L460.356 148.219L455.536 151.823C453.86 150.789 452.033 150.026 450.12 149.561L449.267 143.626H440.575L439.722 149.561C437.811 150.029 435.983 150.792 434.307 151.823L429.527 148.219L423.353 154.384L426.968 159.18C425.918 160.848 425.154 162.68 424.707 164.599L418.764 165.453V174.151L424.707 175.005C425.156 176.949 425.92 178.807 426.968 180.505L423.353 185.301L429.527 191.439L434.307 187.821C435.973 188.882 437.803 189.661 439.722 190.125L440.575 196.059H449.267L450.12 190.125C452.041 189.663 453.871 188.885 455.536 187.821L460.356 191.439L466.489 185.301L462.901 180.478C463.921 178.795 464.683 176.968 465.162 175.059L471.106 174.151ZM444.881 180.681C442.738 180.681 440.644 180.046 438.863 178.855C437.082 177.664 435.694 175.971 434.874 173.99C434.054 172.01 433.839 169.831 434.257 167.728C434.675 165.626 435.707 163.694 437.222 162.178C438.736 160.663 440.666 159.63 442.767 159.212C444.869 158.794 447.046 159.009 449.025 159.829C451.005 160.649 452.696 162.038 453.886 163.821C455.077 165.603 455.712 167.699 455.712 169.843C455.712 172.717 454.571 175.474 452.539 177.507C450.508 179.539 447.753 180.681 444.881 180.681Z" fill="#DDE9F2"/>
<path d="M395.598 373.326V367.568L391.659 366.999C391.359 365.719 390.851 364.497 390.156 363.381L392.552 360.211L388.49 356.146L385.295 358.544C384.18 357.849 382.959 357.341 381.68 357.041L381.112 353.112H375.371L374.802 357.041C373.52 357.342 372.294 357.85 371.174 358.544L368.019 356.146L363.958 360.211L366.354 363.381C365.653 364.494 365.145 365.717 364.851 366.999L360.925 367.568V373.312L364.851 373.881C365.151 375.17 365.659 376.401 366.354 377.526L363.958 380.696L368.019 384.761L371.174 382.363C372.291 383.07 373.517 383.587 374.802 383.894L375.371 387.823H381.112L381.68 383.894C382.963 383.59 384.185 383.072 385.295 382.363L388.436 384.774L392.498 380.71L390.102 377.526C390.785 376.4 391.292 375.175 391.604 373.895L395.598 373.326ZM378.255 377.661C376.829 377.664 375.435 377.243 374.248 376.452C373.062 375.661 372.136 374.536 371.589 373.218C371.043 371.9 370.899 370.45 371.176 369.051C371.454 367.651 372.14 366.366 373.148 365.357C374.156 364.348 375.441 363.661 376.839 363.384C378.238 363.106 379.687 363.25 381.004 363.797C382.321 364.344 383.445 365.27 384.236 366.458C385.026 367.645 385.447 369.04 385.444 370.467C385.446 371.412 385.261 372.349 384.9 373.222C384.54 374.096 384.01 374.89 383.342 375.558C382.674 376.227 381.881 376.756 381.008 377.117C380.135 377.478 379.199 377.663 378.255 377.661Z" fill="#E4EFF7"/>
<path d="M225.967 413.754C225.967 409.785 228.093 407.522 230.95 407.522C233.806 407.522 235.919 409.785 235.919 413.754C235.919 417.724 233.793 420 230.95 420C228.106 420 225.967 417.697 225.967 413.754ZM234.172 413.754C234.172 410.638 232.818 409.067 230.95 409.067C229.081 409.067 227.714 410.638 227.714 413.754C227.714 416.87 229.068 418.442 230.95 418.442C232.832 418.442 234.158 416.884 234.158 413.754H234.172Z" fill="#DDE9F2"/>
<path d="M237.583 413.754C237.583 409.785 239.709 407.522 242.566 407.522C245.423 407.522 247.521 409.785 247.521 413.754C247.521 417.724 245.396 420 242.566 420C239.736 420 237.583 417.697 237.583 413.754ZM245.707 413.754C245.707 410.638 244.353 409.067 242.498 409.067C240.643 409.067 239.249 410.638 239.249 413.754C239.249 416.87 240.603 418.442 242.498 418.442C244.394 418.442 245.775 416.884 245.775 413.754H245.707Z" fill="#DDE9F2"/>
<path d="M252.923 407.657V419.851H251.204V409.161H248.496V407.644L252.923 407.657Z" fill="#DDE9F2"/>
<path d="M255.591 413.754C255.591 409.785 257.716 407.522 260.573 407.522C263.43 407.522 265.542 409.785 265.542 413.754C265.542 417.724 263.416 420 260.573 420C257.73 420 255.591 417.697 255.591 413.754ZM263.795 413.754C263.795 410.638 262.442 409.067 260.573 409.067C258.705 409.067 257.337 410.638 257.337 413.754C257.337 416.87 258.691 418.442 260.573 418.442C262.455 418.442 263.795 416.884 263.795 413.754Z" fill="#DDE9F2"/>
<path d="M270.944 407.657V419.851H269.292V409.161H266.584V407.644L270.944 407.657Z" fill="#DDE9F2"/>
<path d="M273.611 413.754C273.611 409.785 275.737 407.522 278.594 407.522C281.45 407.522 283.549 409.785 283.549 413.754C283.549 417.724 281.423 420 278.594 420C275.764 420 273.611 417.697 273.611 413.754ZM281.816 413.754C281.816 410.638 280.462 409.067 278.594 409.067C276.725 409.067 275.344 410.638 275.344 413.754C275.344 416.87 276.698 418.442 278.594 418.442C280.489 418.442 281.816 416.884 281.816 413.754Z" fill="#DDE9F2"/>
<path d="M288.951 407.657V419.851H287.231V409.161H284.523V407.644L288.951 407.657Z" fill="#DDE9F2"/>
<path d="M40.4819 195.232C40.4819 190.233 43.1898 187.388 46.737 187.388C50.2842 187.388 52.9785 190.233 52.9785 195.232C52.9785 200.232 50.2707 203.063 46.737 203.063C43.2033 203.063 40.4819 200.218 40.4819 195.232ZM50.7852 195.232C50.7852 191.317 49.1199 189.339 46.7234 189.339C44.327 189.339 42.6617 191.317 42.6617 195.232C42.6617 199.148 44.327 201.126 46.7234 201.126C49.1199 201.126 50.7581 199.148 50.7581 195.232H50.7852Z" fill="#DDE9F2"/>
<path d="M55.0498 195.232C55.0498 190.233 57.7576 187.388 61.3184 187.388C64.8792 187.388 67.5464 190.233 67.5464 195.232C67.5464 200.232 64.8386 203.063 61.3184 203.063C57.7982 203.063 55.0498 200.218 55.0498 195.232ZM65.353 195.232C65.353 191.317 63.7013 189.339 61.2913 189.339C58.8814 189.339 57.2296 191.317 57.2296 195.232C57.2296 199.148 58.8949 201.126 61.2913 201.126C63.6877 201.126 65.353 199.148 65.353 195.232Z" fill="#DDE9F2"/>
<path d="M74.3297 187.564V202.887H72.1634V189.474H68.7109V187.564H74.3297Z" fill="#DDE9F2"/>
<path d="M77.687 195.232C77.687 190.233 80.3948 187.388 83.9421 187.388C87.4893 187.388 90.1836 190.233 90.1836 195.232C90.1836 200.232 87.4758 203.063 83.9421 203.063C80.4084 203.063 77.687 200.218 77.687 195.232ZM87.9902 195.232C87.9902 191.317 86.3385 189.339 83.9285 189.339C81.5186 189.339 79.8668 191.317 79.8668 195.232C79.8668 199.148 81.5321 201.126 83.9285 201.126C86.3249 201.126 87.9902 199.148 87.9902 195.232Z" fill="#DDE9F2"/>
<path d="M96.9669 187.564V202.887H94.8006V189.474H91.3481V187.564H96.9669Z" fill="#DDE9F2"/>
<path d="M105.077 187.564V202.887H102.91V189.474H99.4443V187.564H105.077Z" fill="#DDE9F2"/>
<path d="M108.421 195.232C108.421 190.233 111.129 187.388 114.676 187.388C118.223 187.388 120.917 190.233 120.917 195.232C120.917 200.232 118.21 203.063 114.676 203.063C111.142 203.063 108.421 200.218 108.421 195.232ZM118.724 195.232C118.724 191.317 117.072 189.339 114.662 189.339C112.252 189.339 110.601 191.317 110.601 195.232C110.601 199.148 112.266 201.126 114.662 201.126C117.059 201.126 118.724 199.148 118.724 195.232Z" fill="#DDE9F2"/>
<path d="M123.07 195.232C123.07 190.233 125.778 187.388 129.325 187.388C132.873 187.388 135.553 190.233 135.553 195.232C135.553 200.232 132.846 203.063 129.325 203.063C125.805 203.063 123.07 200.218 123.07 195.232ZM133.374 195.232C133.374 191.317 131.708 189.339 129.312 189.339C126.915 189.339 125.25 191.317 125.25 195.232C125.25 199.148 126.915 201.126 129.312 201.126C131.708 201.126 133.333 199.148 133.333 195.232H133.374Z" fill="#DDE9F2"/>
<path d="M137.625 195.232C137.625 190.233 140.332 187.388 143.88 187.388C147.427 187.388 150.121 190.233 150.121 195.232C150.121 200.232 147.413 203.063 143.88 203.063C140.346 203.063 137.625 200.218 137.625 195.232ZM147.928 195.232C147.928 191.317 146.276 189.339 143.866 189.339C141.456 189.339 139.804 191.317 139.804 195.232C139.804 199.148 141.47 201.126 143.866 201.126C146.262 201.126 147.928 199.148 147.928 195.232Z" fill="#DDE9F2"/>
<path d="M156.918 187.564V202.887H154.752V189.474H151.299V187.564H156.918Z" fill="#DDE9F2"/>
<path d="M160.262 195.232C160.262 190.233 162.97 187.388 166.517 187.388C170.064 187.388 172.759 190.233 172.759 195.232C172.759 200.232 170.051 203.063 166.517 203.063C162.984 203.063 160.262 200.218 160.262 195.232ZM170.565 195.232C170.565 191.317 168.9 189.339 166.504 189.339C164.107 189.339 162.442 191.317 162.442 195.232C162.442 199.148 164.107 201.126 166.504 201.126C168.9 201.126 170.565 199.148 170.565 195.232Z" fill="#DDE9F2"/>
<path d="M179.542 187.564V202.887H177.375V189.474H173.923V187.564H179.542Z" fill="#DDE9F2"/>
<path d="M281.883 213.252C281.883 208.252 284.591 205.407 288.138 205.407C291.686 205.407 294.38 208.252 294.38 213.252C294.38 218.251 291.672 221.083 288.138 221.083C284.605 221.083 281.883 218.238 281.883 213.252ZM292.187 213.252C292.187 209.323 290.521 207.358 288.125 207.358C285.728 207.358 284.063 209.323 284.063 213.252C284.063 217.181 285.728 219.132 288.125 219.132C290.521 219.132 292.187 217.181 292.187 213.252Z" fill="#DDE9F2"/>
<path d="M301.163 205.583V220.906H298.997V207.494H295.544V205.583H301.163Z" fill="#DDE9F2"/>
<path d="M309.259 205.583V220.906H307.093V207.494H303.641V205.583H309.259Z" fill="#DDE9F2"/>
<path d="M312.617 213.252C312.617 208.252 315.325 205.407 318.872 205.407C322.419 205.407 325.114 208.252 325.114 213.252C325.114 218.251 322.406 221.083 318.872 221.083C315.339 221.083 312.617 218.238 312.617 213.252ZM322.92 213.252C322.92 209.323 321.255 207.358 318.859 207.358C316.462 207.358 314.797 209.323 314.797 213.252C314.797 217.181 316.449 219.132 318.859 219.132C321.269 219.132 322.92 217.181 322.92 213.252Z" fill="#DDE9F2"/>
<path d="M327.212 213.252C327.212 208.252 329.92 205.407 333.481 205.407C337.042 205.407 339.709 208.252 339.709 213.252C339.709 218.251 337.001 221.083 333.481 221.083C329.961 221.083 327.212 218.238 327.212 213.252ZM337.529 213.252C337.529 209.323 335.864 207.358 333.467 207.358C331.071 207.358 329.406 209.323 329.406 213.252C329.406 217.181 331.071 219.132 333.467 219.132C335.864 219.132 337.529 217.181 337.529 213.252Z" fill="#DDE9F2"/>
<path d="M341.821 213.252C341.821 208.252 344.529 205.407 348.076 205.407C351.623 205.407 354.317 208.252 354.317 213.252C354.317 218.251 351.61 221.083 348.076 221.083C344.542 221.083 341.821 218.238 341.821 213.252ZM352.124 213.252C352.124 209.323 350.459 207.358 348.062 207.358C345.666 207.358 344.001 209.323 344.001 213.252C344.001 217.181 345.666 219.132 348.062 219.132C350.459 219.132 352.124 217.181 352.124 213.252Z" fill="#DDE9F2"/>
<path d="M394.935 29.3322C394.935 30.0557 394.72 30.7629 394.319 31.3645C393.917 31.966 393.346 32.4349 392.678 32.7117C392.01 32.9886 391.275 33.0611 390.566 32.9199C389.857 32.7788 389.205 32.4304 388.694 31.9188C388.183 31.4072 387.835 30.7554 387.694 30.0458C387.553 29.3362 387.625 28.6007 387.902 27.9323C388.178 27.2638 388.647 26.6925 389.248 26.2906C389.849 25.8886 390.556 25.6741 391.279 25.6741C392.249 25.6741 393.178 26.0595 393.864 26.7455C394.55 27.4315 394.935 28.362 394.935 29.3322Z" fill="#DDE9F2"/>
<path d="M410.748 29.3322C410.751 30.0595 410.538 30.7712 410.136 31.3771C409.733 31.983 409.161 32.4557 408.49 32.7352C407.819 33.0148 407.08 33.0887 406.367 32.9474C405.654 32.8062 404.999 32.4562 404.485 31.9419C403.971 31.4276 403.621 30.7722 403.48 30.0587C403.339 29.3452 403.413 28.6058 403.692 27.9344C403.971 27.2629 404.444 26.6897 405.049 26.2872C405.655 25.8848 406.366 25.6714 407.093 25.6741C408.062 25.6741 408.992 26.0595 409.678 26.7455C410.363 27.4315 410.748 28.362 410.748 29.3322Z" fill="#DDE9F2"/>
<path d="M428.065 29.3322C428.065 30.3558 427.762 31.3565 427.193 32.2076C426.625 33.0587 425.817 33.722 424.872 34.1138C423.927 34.5055 422.887 34.608 421.884 34.4083C420.881 34.2086 419.959 33.7156 419.236 32.9918C418.513 32.268 418.02 31.3459 417.821 30.3419C417.621 29.338 417.723 28.2974 418.115 27.3517C418.506 26.406 419.169 25.5977 420.02 25.029C420.87 24.4603 421.87 24.1567 422.893 24.1567C424.265 24.1567 425.58 24.702 426.55 25.6726C427.52 26.6432 428.065 27.9596 428.065 29.3322Z" fill="#DDE9F2"/>
<path d="M442.362 29.3322C442.365 30.0595 442.151 30.7712 441.749 31.3771C441.347 31.983 440.774 32.4557 440.103 32.7352C439.432 33.0148 438.694 33.0887 437.981 32.9474C437.268 32.8062 436.613 32.4562 436.099 31.9419C435.585 31.4276 435.235 30.7722 435.094 30.0587C434.953 29.3452 435.026 28.6058 435.306 27.9344C435.585 27.2629 436.058 26.6897 436.663 26.2872C437.268 25.8848 437.98 25.6714 438.707 25.6741C439.676 25.6741 440.606 26.0595 441.291 26.7455C441.977 27.4315 442.362 28.362 442.362 29.3322Z" fill="#DDE9F2"/>
<path d="M176.956 358.314C176.953 357.587 177.166 356.876 177.567 356.271C177.969 355.665 178.541 355.192 179.211 354.912C179.881 354.632 180.62 354.558 181.332 354.698C182.045 354.838 182.7 355.187 183.214 355.7C183.729 356.212 184.08 356.867 184.222 357.579C184.365 358.292 184.293 359.031 184.016 359.702C183.738 360.374 183.268 360.948 182.665 361.352C182.061 361.756 181.351 361.972 180.625 361.972C180.143 361.974 179.667 361.881 179.222 361.698C178.777 361.515 178.372 361.245 178.031 360.906C177.69 360.566 177.42 360.162 177.235 359.717C177.051 359.272 176.956 358.796 176.956 358.314Z" fill="#DDE9F2"/>
<path d="M161.156 358.314C161.156 357.591 161.37 356.884 161.772 356.282C162.174 355.68 162.744 355.212 163.412 354.935C164.08 354.658 164.815 354.585 165.524 354.727C166.234 354.868 166.885 355.216 167.396 355.728C167.907 356.239 168.256 356.891 168.397 357.601C168.538 358.31 168.465 359.046 168.189 359.714C167.912 360.383 167.443 360.954 166.842 361.356C166.241 361.758 165.534 361.972 164.811 361.972C163.842 361.972 162.912 361.587 162.226 360.901C161.541 360.215 161.156 359.285 161.156 358.314Z" fill="#DDE9F2"/>
<path d="M143.839 358.314C143.839 357.291 144.143 356.29 144.711 355.439C145.279 354.588 146.087 353.924 147.032 353.533C147.977 353.141 149.017 353.038 150.02 353.238C151.024 353.438 151.945 353.931 152.668 354.655C153.392 355.378 153.884 356.301 154.084 357.304C154.283 358.308 154.181 359.349 153.79 360.295C153.398 361.24 152.735 362.049 151.885 362.617C151.034 363.186 150.034 363.49 149.011 363.49C147.64 363.49 146.324 362.944 145.354 361.974C144.384 361.003 143.839 359.687 143.839 358.314Z" fill="#DDE9F2"/>
<path d="M129.542 358.314C129.539 357.587 129.753 356.875 130.155 356.269C130.557 355.663 131.13 355.191 131.801 354.911C132.472 354.632 133.211 354.558 133.924 354.699C134.637 354.84 135.292 355.19 135.806 355.705C136.319 356.219 136.669 356.874 136.81 357.588C136.951 358.301 136.878 359.041 136.598 359.712C136.319 360.383 135.847 360.957 135.241 361.359C134.636 361.762 133.924 361.975 133.198 361.972C132.228 361.972 131.298 361.587 130.613 360.901C129.927 360.215 129.542 359.284 129.542 358.314Z" fill="#DDE9F2"/>
<path d="M366.056 224.199H359.841V227.87H366.056V224.199Z" fill="#55738E"/>
<path d="M366.056 217.302H359.841V220.974H366.056V217.302Z" fill="#55738E"/>
<path d="M366.056 210.406H359.841V214.078H366.056V210.406Z" fill="#55738E"/>
<path d="M366.056 203.51H359.841V207.182H366.056V203.51Z" fill="#55738E"/>
<path d="M366.056 196.614H359.841V200.286H366.056V196.614Z" fill="#55738E"/>
<path d="M366.056 189.718H359.841V193.39H366.056V189.718Z" fill="#55738E"/>
<path d="M366.056 182.822H359.841V186.494H366.056V182.822Z" fill="#55738E"/>
<path d="M366.056 175.926H359.841V179.597H366.056V175.926Z" fill="#55738E"/>
<path d="M366.056 169.03H359.841V172.701H366.056V169.03Z" fill="#55738E"/>
<path d="M366.056 162.134H359.841V165.805H366.056V162.134Z" fill="#55738E"/>
<path d="M279.054 224.199H272.839V227.87H279.054V224.199Z" fill="#55738E"/>
<path d="M279.054 217.302H272.839V220.974H279.054V217.302Z" fill="#55738E"/>
<path d="M279.054 210.406H272.839V214.078H279.054V210.406Z" fill="#55738E"/>
<path d="M279.054 203.51H272.839V207.182H279.054V203.51Z" fill="#55738E"/>
<path d="M279.054 196.614H272.839V200.286H279.054V196.614Z" fill="#55738E"/>
<path d="M279.054 189.718H272.839V193.39H279.054V189.718Z" fill="#55738E"/>
<path d="M279.054 182.822H272.839V186.494H279.054V182.822Z" fill="#55738E"/>
<path d="M279.054 175.926H272.839V179.597H279.054V175.926Z" fill="#55738E"/>
<path d="M279.054 169.03H272.839V172.701H279.054V169.03Z" fill="#55738E"/>
<path d="M279.054 162.134H272.839V165.805H279.054V162.134Z" fill="#55738E"/>
<path d="M192.038 224.199H185.824V227.87H192.038V224.199Z" fill="#55738E"/>
<path d="M192.038 217.302H185.824V220.974H192.038V217.302Z" fill="#55738E"/>
<path d="M192.038 210.406H185.824V214.078H192.038V210.406Z" fill="#55738E"/>
<path d="M192.038 203.51H185.824V207.182H192.038V203.51Z" fill="#55738E"/>
<path d="M192.038 196.614H185.824V200.286H192.038V196.614Z" fill="#55738E"/>
<path d="M192.038 189.718H185.824V193.39H192.038V189.718Z" fill="#55738E"/>
<path d="M192.038 182.822H185.824V186.494H192.038V182.822Z" fill="#55738E"/>
<path d="M192.038 175.926H185.824V179.597H192.038V175.926Z" fill="#55738E"/>
<path d="M192.038 169.03H185.824V172.701H192.038V169.03Z" fill="#55738E"/>
<path d="M192.038 162.134H185.824V165.805H192.038V162.134Z" fill="#55738E"/>
</g>
<defs>
<clipPath id="clip0_2_378">
<rect width="544" height="420" fill="white"/>
</clipPath>
</defs>
</svg>
