<svg width="543" height="363" viewBox="0 0 543 363" fill="none" xmlns="http://www.w3.org/2000/svg">
<path d="M483.104 131.079C468.226 150.775 443.23 162.476 417.107 162.476C374.666 162.476 336.934 130.079 336.934 87.6851C336.934 52.7138 356.057 27.634 382.385 16.0892C389.629 12.9295 397.279 10.7983 405.115 9.75763C409.089 9.22216 413.096 8.95412 417.107 8.95533C427.369 8.95512 437.531 10.9781 447.009 14.9083C475.104 26.5157 495.542 53.8704 496.964 85.7159C497.746 103.356 492.398 118.777 483.104 131.079Z" fill="#657285"/>
<path d="M372.914 92.4538C372.914 92.4538 375.908 99.3827 372.914 103.189C369.92 106.996 369.649 114.196 375.636 118.951C381.624 123.705 384.204 124.115 382.844 128.87C381.485 133.625 380.063 139.435 382.302 141.88C384.541 144.326 385.462 150.136 390.462 150.563C395.462 150.991 390.056 146.587 393.32 142.509C396.585 138.432 409.235 137.619 408.011 129.568C406.787 121.517 418.418 120.802 420.052 115.502C421.686 110.202 414.746 106.944 408.925 107.35C403.105 107.757 406.683 98.6881 400.358 97.3614C394.033 96.0346 391.071 90.9429 387.399 91.5542C383.727 92.1655 379.645 86.9661 375.463 88.5985C371.28 90.2309 372.914 92.4538 372.914 92.4538Z" fill="#B8C1C9"/>
<path d="M362.302 37.0115C362.302 37.0115 357.949 40.4083 356.739 45.8438C355.529 51.2793 349.392 54.6761 348.443 62.1677C347.493 69.6593 351.808 69.8434 350.279 73.9209C348.749 77.9984 350.651 80.0372 355.31 82.0759C359.969 84.1147 360.379 87.2475 363.133 88.279C365.887 89.3105 365.174 92.0613 366.092 92.3669C367.01 92.6726 366.603 90.283 367.556 87.1572C368.509 84.0313 369.322 82.7393 365.856 82.8747C362.389 83.0102 363.474 80.2247 364.833 78.4603C366.193 76.696 362.928 76.4216 361.84 76.6925C360.751 76.9634 361.026 81.9926 358.78 79.6134C356.534 77.2343 355.445 74.5183 357.285 71.3924C359.124 68.2666 363.064 70.8506 365.856 67.1135C368.648 63.3764 372.587 64.8698 372.81 67.8602C373.032 70.8506 378.592 70.9166 379.545 66.978C380.497 63.0395 380.087 56.173 385.803 55.0547C391.52 53.9363 402.75 48.2264 395.605 45.882C388.46 43.5376 391.314 38.6439 387.643 38.9357C383.971 39.2274 385.396 44.7463 381.314 43.1035C377.232 41.4607 374.274 37.0914 379.99 35.8689C385.706 34.6463 388.049 28.3286 383.661 28.735C379.273 29.1413 378.561 24.8624 375.908 25.3729C373.255 25.8835 370.501 32.3193 367.747 33.9308C364.993 35.5424 362.302 37.0115 362.302 37.0115Z" fill="#B8C1C9"/>
<path d="M399.103 24.4422C399.103 24.4422 404.746 22.8793 407.197 24.4422C409.649 26.0051 413.456 30.4195 410.257 32.0519C407.058 33.6843 403.724 34.2261 405.288 37.2825C406.853 40.3389 400.803 41.36 399.103 37.2825C397.403 33.205 397.403 31.7254 395.626 29.8082C393.849 27.8911 394.611 23.8309 399.103 24.4422Z" fill="#B8C1C9"/>
<path d="M483.104 131.079C459.746 124.959 479.116 115.356 470.935 104.304C466.268 98.0108 474.572 90.4323 469.262 89.3904C466.182 88.7861 459.092 96.6458 455.006 89.3904C450.921 82.1349 443.619 82.0967 441.495 86.4868C439.37 90.8769 430.41 93.9194 424.534 90.7345C418.658 87.5496 422.062 83.3019 416.975 79.9677C411.888 76.6334 411.509 71.3264 416.975 67.2316C422.441 63.1367 419.934 57.2219 428.132 59.0418C436.331 60.8618 434.739 41.9816 434.739 41.9816C434.614 38.6786 437.812 38.1125 435.991 35.0353C434.169 31.958 429.037 34.4657 426.311 27.6409C423.585 20.8161 430.639 16.7213 436.331 17.3881C437.99 17.5826 442.02 16.4226 447.023 14.9048C475.117 26.5121 495.555 53.8668 496.978 85.7123C497.746 103.356 492.398 118.777 483.104 131.079Z" fill="#B8C1C9"/>
<path d="M374.576 76.8592C374.576 76.8592 379.287 74.2369 381.794 76.3209C384.301 78.4048 385.375 79.794 389.075 79.0056C392.774 78.2172 395.278 79.7002 392.9 80.7908C390.521 81.8814 384.902 83.7708 382.336 81.5063C379.77 79.2418 372.371 77.7726 374.576 76.8592Z" fill="#B8C1C9"/>
<path d="M393.55 85.3233C393.55 85.3233 396.891 85.9172 397.667 84.5453C398.442 83.1734 396.892 84.4863 395.608 83.7708C394.325 83.0554 391.878 83.7708 393.55 85.3233Z" fill="#B8C1C9"/>
<path d="M273.151 362.215C418.474 362.215 536.282 350.37 536.282 335.76C536.282 321.149 418.474 309.305 273.151 309.305C127.828 309.305 10.02 321.149 10.02 335.76C10.02 350.37 127.828 362.215 273.151 362.215Z" fill="#EAEAEA"/>
<g opacity="0.6">
<path d="M404.197 212.542C434.297 181.808 476.54 145.51 494.923 161.782C517.075 181.402 463.282 206.085 422.827 231.363C408.317 240.432 385.014 232.131 404.197 212.542Z" fill="#D5D6DA"/>
</g>
<path d="M367.003 225.32C367.003 225.32 520.649 165.929 540.927 213.4C561.205 260.871 426.018 227.553 382.027 246.43L367.003 225.32Z" fill="#B8C1C9"/>
<path d="M375.306 237.188C405.445 223.601 442.614 219.301 468.49 218.085C496.539 216.769 517.715 218.697 517.923 218.714L518.045 217.401C517.836 217.38 496.571 215.446 468.428 216.765C442.437 217.985 405.09 222.322 374.764 235.982L375.306 237.188Z" fill="white"/>
<path d="M472.579 323.114C453.295 314.494 437.548 341.682 422.023 323.093C408.897 307.363 408.637 304.894 399.69 305.432C396.623 305.631 393.6 306.265 390.712 307.314C387.235 308.551 381.377 309.815 375.88 307.092C342.288 290.459 333.954 216.64 382.816 215.213C386.345 215.109 390.118 216.831 394.13 218.919C415.973 230.252 415.465 243.721 447.878 231.988C480.291 220.256 476.904 268.717 490.9 277.202C504.895 285.687 519.376 290.268 519.376 311.68C519.376 333.092 491.859 331.748 472.579 323.114Z" fill="#D5D6DA"/>
<g opacity="0.5">
<path d="M368.766 254.147L368.821 252.758C369.433 252.782 431.06 256.009 518.83 317.359L518.031 318.495C430.601 257.377 369.374 254.171 368.766 254.147Z" fill="white"/>
<path d="M446.939 260.291C443.09 241.703 447.065 232.11 447.239 231.71L448.515 232.256C448.476 232.349 444.551 241.897 448.303 260.01L446.939 260.291Z" fill="white"/>
<path d="M440.031 273.802C440.977 265.814 447.249 257.936 458.17 250.99C463.315 247.752 468.765 245.026 474.443 242.852L474.912 244.158C474.599 244.269 443.588 255.62 441.411 273.969L440.031 273.802Z" fill="white"/>
<path d="M464.168 288.532C463.646 286.406 463.473 285.131 463.448 285.058L464.839 284.867C464.877 285.135 468.914 311.958 492.196 327.994L491.407 329.133C472.635 316.223 466.108 296.461 464.168 288.532Z" fill="white"/>
<path d="M456.321 322.614C455.389 313 458.167 306.123 460.66 302.046C463.375 297.607 466.293 295.474 466.414 295.384L467.221 296.52C467.106 296.6 455.983 304.894 457.694 322.489L456.321 322.614Z" fill="white"/>
</g>
<path d="M108.535 13.2517C108.535 13.2517 113.402 3.90188 125.708 5.07234C138.013 6.24279 136.549 15.6169 142.397 14.7382C148.246 13.8595 156.462 14.7382 158.221 20.5939C159.981 26.4497 167.891 23.2301 168.186 28.2071C168.482 33.1842 159.101 36.7025 148.256 32.309C137.411 27.9154 132.14 35.7196 116.9 34.306C101.66 32.8924 99.7725 31.135 90.7531 32.0137C81.7337 32.8924 81.9492 26.7241 86.0521 22.6362C90.155 18.5482 106.775 18.9129 108.535 13.2517Z" fill="#EAEAEA"/>
<g opacity="0.6">
<path d="M170.241 44.0203C170.241 44.0203 172.773 39.1579 179.177 39.7657C185.582 40.3735 184.821 45.2533 187.87 44.7949C190.919 44.3364 195.172 44.7949 196.103 47.8443C197.035 50.8938 201.138 49.2336 201.291 51.8072C201.444 54.3808 196.562 56.2251 190.919 53.9397C185.276 51.6544 182.529 55.718 174.598 54.9817C166.667 54.2454 165.686 53.3319 160.993 53.7869C156.299 54.2419 156.406 51.0327 158.559 48.9001C160.711 46.7676 169.327 46.976 170.241 44.0203Z" fill="#EAEAEA"/>
</g>
<path d="M96.0801 75.4074C93.2671 78.6895 91.3826 78.7729 90.0961 77.6719C88.8096 76.5709 88.601 74.6989 91.4139 71.4202C96.5425 65.4394 101.355 64.5433 101.355 64.5433C101.355 64.5433 101.285 69.3363 96.0801 75.4074Z" fill="#D5D6DA"/>
<path d="M105.04 101.956C103.437 105.975 101.685 106.659 100.11 106.034C98.5348 105.409 97.7316 103.703 99.331 99.6884C102.245 92.3704 106.508 89.9635 106.508 89.9635C106.508 89.9635 107.996 94.5307 105.04 101.956Z" fill="#D5D6DA"/>
<path d="M127.168 171.458L126.375 171.656C126.344 171.534 123.19 159.229 113.117 143.086C103.823 128.189 86.5702 106.881 57.1372 89.9461L57.5475 89.2515C87.13 106.27 104.487 127.696 113.82 142.679C123.976 158.93 127.168 171.333 127.168 171.458Z" fill="#D5D6DA"/>
<path d="M88.8585 112.629L88.0623 112.435C95.072 83.5555 76.0248 57.9721 75.8301 57.7151L76.4838 57.2219C76.6785 57.4789 95.962 83.3645 88.8585 112.629Z" fill="#D5D6DA"/>
<path d="M72.8675 104.106C67.9458 105.73 62.678 106.005 57.6138 104.902L57.8224 104.113C57.9163 104.137 67.273 106.544 76.049 101.828L76.4384 102.547C75.2923 103.162 74.098 103.684 72.8675 104.106Z" fill="#D5D6DA"/>
<path d="M119.866 154.467C103.333 158.135 87.7662 154.814 73.6008 144.624C73.2569 144.36 72.8982 144.115 72.5264 143.891C72.5573 143.898 72.5893 143.898 72.6203 143.891V143.075C72.8636 143.075 73.0653 143.211 74.0875 143.95C88.0582 154.023 103.402 157.273 119.696 153.675L119.866 154.467Z" fill="#D5D6DA"/>
<path d="M94.4843 153.884L93.6672 153.939C92.9196 142.856 81.0143 130.28 80.8926 130.155L81.4871 129.589C83.7401 132.038 85.811 134.649 87.6832 137.4C90.5761 141.616 94.0948 147.924 94.4843 153.884Z" fill="#D5D6DA"/>
<path d="M55.1625 85.827C60.531 88.1089 61.5915 90.0538 60.9274 91.6133C60.2632 93.1728 58.1457 93.7562 52.7563 91.4744C42.972 87.3066 39.4463 82.4823 39.4463 82.4823C39.4463 82.4823 45.2321 81.6106 55.1625 85.827Z" fill="#D5D6DA"/>
<path d="M58.8273 101.675C64.6374 102.234 66.2334 103.759 66.07 105.454C65.9066 107.149 64.0498 108.344 58.2397 107.784C47.6557 106.767 42.833 103.221 42.833 103.221C42.833 103.221 48.0868 100.633 58.8273 101.675Z" fill="#D5D6DA"/>
<path d="M82.3456 126.845C85.475 129.832 85.4506 131.708 84.2789 132.941C83.1071 134.173 81.226 134.267 78.0967 131.28C72.4014 125.834 71.7686 120.986 71.7686 120.986C71.7686 120.986 76.5633 121.319 82.3456 126.845Z" fill="#D5D6DA"/>
<path d="M76.5393 89.0396C78.8446 92.6968 78.3647 94.5168 76.9287 95.4198C75.4927 96.3228 73.6464 95.9685 71.3377 92.2939C67.1374 85.6289 67.7076 80.7734 67.7076 80.7734C67.7076 80.7734 72.2765 82.2773 76.5393 89.0396Z" fill="#D5D6DA"/>
<path d="M103.326 146.26C104.512 150.428 103.542 152.033 101.907 152.512C100.273 152.991 98.6008 152.116 97.4186 147.955C95.2629 140.38 97.1752 135.879 97.1752 135.879C97.1752 135.879 101.139 138.574 103.326 146.26Z" fill="#D5D6DA"/>
<path d="M76.8589 142.735C80.555 144.985 80.9409 146.826 80.0578 148.274C79.1746 149.723 77.3596 150.226 73.6635 147.976C66.9285 143.874 65.2734 139.293 65.2734 139.293C65.2734 139.293 70.03 138.577 76.8589 142.735Z" fill="#D5D6DA"/>
<path d="M77.0365 53.5264C80.1659 58.4444 79.9433 60.6464 78.5143 61.5564C77.0852 62.4664 74.9886 61.7405 71.8558 56.8224C66.143 47.8617 65.9727 41.8878 65.9727 41.8878C65.9727 41.8878 71.2438 44.4371 77.0365 53.5264Z" fill="#D5D6DA"/>
<path d="M190.102 278.345C190.102 278.345 106.702 141.057 70.2597 165.06C33.817 189.063 146.546 244.686 169.557 285.42L190.102 278.345Z" fill="#D5D6DA"/>
<path d="M151.292 253.855C151.292 253.855 55.3048 152.154 22.3704 181.103C-10.564 210.052 105.263 233.978 132.036 264.532L151.292 253.855Z" fill="#EAEAEA"/>
<path d="M140.572 259.923C122.453 238.487 95.5445 221.597 76.1601 211.201C55.145 199.935 38.2119 193.669 38.0415 193.606L38.4309 192.564C38.6013 192.627 55.6074 198.92 76.6782 210.226C96.1495 220.666 123.187 237.636 141.417 259.197L140.572 259.923Z" fill="white"/>
<path d="M36.5846 293.338C58.1873 297.534 55.3014 330.126 79.6788 323.576C104.056 317.025 101.994 315.487 114.004 325.872C114.004 325.872 118.813 336.051 128.608 337.555C167.202 343.484 218.583 285.565 177.801 255.109C174.855 252.911 170.62 252.129 165.937 251.497C140.527 248.083 132.881 259.864 112.3 230.474C91.7198 201.084 65.5378 244.398 48.5247 243.252C31.5116 242.106 16.4318 237.347 3.5807 255.592C-9.27039 273.837 14.9784 289.16 36.5846 293.338Z" fill="#B8C1C9"/>
<path d="M166.41 296.697L167.192 295.481C166.656 295.134 112.199 261 0.625 260.75V262.198C111.779 262.445 165.874 296.353 166.41 296.697Z" fill="white"/>
<path d="M96.1112 255.151C110.537 241.606 112.905 231.061 112.999 230.62L111.58 230.318C111.56 230.422 109.178 240.907 95.1167 254.095L96.1112 255.151Z" fill="white"/>
<path d="M93.8928 270.798C97.8705 263.434 97.2586 252.959 92.1195 240.505C89.679 234.666 86.6684 229.082 83.1314 223.833L81.9492 224.663C82.1474 224.945 101.768 253.182 92.6202 270.113L93.8928 270.798Z" fill="white"/>
<path d="M64.4914 268.908C66.2091 267.408 67.1374 266.435 67.1792 266.39L66.136 265.404C65.9413 265.609 46.4179 286.041 16.957 285.781V287.226C40.6703 287.437 58.0833 274.5 64.4914 268.908Z" fill="white"/>
<path d="M50.7393 302.64C57.297 294.999 59.0564 287.486 59.3763 282.519C59.724 277.112 58.5175 273.548 58.4688 273.399L57.0988 273.871C57.144 274.007 61.6503 287.729 49.6406 301.698L50.7393 302.64Z" fill="white"/>
<path d="M325.383 296.937V252.55H235.749V296.937C235.749 308.471 228.065 317.821 218.586 317.821H214.974V323.552H346.158V317.821H342.546C333.067 317.821 325.383 308.471 325.383 296.937Z" fill="#00A3FE"/>
<path d="M345.424 323.552H215.707C214.946 323.552 214.217 323.25 213.679 322.712C213.141 322.175 212.838 321.446 212.838 320.686C212.838 319.926 213.141 319.197 213.679 318.66C214.217 318.123 214.946 317.821 215.707 317.821H345.424C346.185 317.821 346.915 318.123 347.453 318.66C347.991 319.197 348.293 319.926 348.293 320.686C348.293 321.446 347.991 322.175 347.453 322.712C346.915 323.25 346.185 323.552 345.424 323.552Z" fill="#016EB9"/>
<path d="M433.243 279.8L130.141 276.327C127.023 276.29 124.045 275.028 121.853 272.812C119.661 270.597 118.431 267.608 118.43 264.494V79.7002C118.431 76.5936 119.654 73.6117 121.837 71.3984C124.019 69.1852 126.986 67.918 130.096 67.8706L429.29 63.293C432.421 63.2455 435.444 64.4385 437.697 66.611C439.95 68.7836 441.251 71.7589 441.314 74.8864L445.222 267.727C445.254 269.312 444.967 270.888 444.378 272.36C443.789 273.832 442.909 275.171 441.792 276.297C440.675 277.423 439.342 278.314 437.874 278.916C436.405 279.517 434.831 279.818 433.243 279.8Z" fill="#016EB9"/>
<path d="M422.976 81.9092H136.528C133.02 81.9092 130.176 84.7502 130.176 88.2547V236.806C130.176 240.31 133.02 243.151 136.528 243.151H422.976C426.484 243.151 429.329 240.31 429.329 236.806V88.2547C429.329 84.7502 426.484 81.9092 422.976 81.9092Z" fill="#EAEAEA"/>
<path d="M310.998 31.517L314.764 31.4163C315.107 31.4073 315.444 31.331 315.757 31.1917C316.07 31.0524 316.352 30.8528 316.588 30.6045C316.824 30.3561 317.008 30.0638 317.131 29.7442C317.253 29.4246 317.312 29.0841 317.302 28.742L317.181 24.1643C317.161 23.4737 316.869 22.8188 316.367 22.3435C315.865 21.8682 315.195 21.6112 314.503 21.6289L311.836 21.7018C311.277 21.7156 310.727 21.5497 310.269 21.2283C309.811 20.9069 309.468 20.4472 309.291 19.9166C309.222 19.7082 309.149 19.4998 309.072 19.2949C308.893 18.8022 308.868 18.2667 309 17.7593C309.132 17.252 309.416 16.7967 309.813 16.4539L311.631 14.8632C312.152 14.4073 312.471 13.7636 312.517 13.0734C312.563 12.3832 312.333 11.7028 311.878 11.1816L308.857 7.7397C308.631 7.48191 308.358 7.271 308.051 7.11906C307.744 6.96711 307.41 6.87711 307.068 6.8542C306.727 6.8313 306.384 6.87594 306.059 6.98557C305.735 7.0952 305.435 7.26766 305.178 7.49309L303.352 9.08381C302.959 9.42967 302.47 9.64806 301.95 9.71008C301.429 9.7721 300.902 9.67482 300.439 9.43113C300.247 9.33041 300.053 9.22968 299.855 9.13591C299.35 8.89189 298.938 8.49171 298.679 7.99486C298.42 7.49802 298.329 6.93103 298.419 6.37821L298.843 3.74902C298.952 3.06652 298.786 2.36861 298.38 1.80857C297.975 1.24852 297.363 0.872152 296.68 0.7621L292.16 0.0327319C291.477 -0.0764022 290.778 0.0898067 290.217 0.49486C289.657 0.899914 289.28 1.51069 289.17 2.19304L288.568 5.91281C288.486 6.40107 288.267 6.8561 287.937 7.225C287.606 7.59389 287.178 7.8615 286.701 7.99671C285.87 8.23397 285.056 8.52993 284.267 8.88236C283.756 9.11524 283.183 9.17783 282.633 9.0609C282.084 8.94396 281.586 8.65368 281.214 8.23288L279.26 6.00311C279.035 5.74521 278.761 5.53423 278.453 5.38224C278.146 5.23025 277.812 5.14023 277.47 5.11733C277.128 5.09443 276.785 5.13908 276.46 5.24876C276.136 5.35844 275.836 5.53098 275.578 5.75651L272.129 8.77123C271.609 9.22701 271.291 9.87035 271.245 10.56C271.2 11.2496 271.43 11.9291 271.885 12.4493L274.514 15.4501C274.845 15.823 275.062 16.2829 275.14 16.7754C275.218 17.2678 275.153 17.7721 274.952 18.2287C274.851 18.4509 274.757 18.6767 274.667 18.9025C274.478 19.3743 274.155 19.7802 273.737 20.0699C273.319 20.3595 272.825 20.52 272.316 20.5314L268.064 20.6425C267.372 20.6616 266.716 20.9544 266.24 21.4565C265.764 21.9587 265.507 22.6291 265.526 23.3203L265.648 27.898C265.667 28.5886 265.959 29.2434 266.461 29.7188C266.963 30.1941 267.633 30.4511 268.325 30.4334L271.979 30.3361C272.526 30.3224 273.063 30.4802 273.515 30.7873C273.967 31.0945 274.312 31.5355 274.5 32.0484V32.0831C274.682 32.5769 274.71 33.1142 274.579 33.624C274.449 34.1338 274.167 34.592 273.77 34.9381L271.186 37.1956C270.928 37.4214 270.717 37.6957 270.566 38.0029C270.414 38.3101 270.324 38.6442 270.301 38.9861C270.279 39.328 270.324 39.6709 270.434 39.9954C270.544 40.3199 270.717 40.6195 270.943 40.8772L273.965 44.3226C274.19 44.5802 274.465 44.7909 274.772 44.9426C275.079 45.0943 275.413 45.184 275.755 45.2066C276.097 45.2291 276.44 45.1842 276.765 45.0742C277.089 44.9642 277.389 44.7915 277.647 44.5657L280.227 42.3082C280.623 41.9604 281.115 41.7409 281.638 41.6789C282.162 41.6169 282.692 41.7152 283.158 41.9608L283.193 41.9817C283.677 42.2347 284.069 42.6334 284.315 43.1214C284.56 43.6094 284.645 44.162 284.559 44.7012L283.982 48.3028C283.927 48.6411 283.939 48.9869 284.018 49.3204C284.097 49.6539 284.241 49.9686 284.442 50.2464C284.643 50.5241 284.897 50.7596 285.189 50.9393C285.481 51.1189 285.806 51.2392 286.145 51.2932L290.665 52.0191C291.348 52.1283 292.047 51.962 292.607 51.557C293.168 51.1519 293.545 50.5412 293.655 49.8588L294.33 45.6632C294.409 45.1616 294.633 44.6941 294.975 44.3187C295.318 43.9433 295.763 43.6766 296.256 43.5516C296.492 43.4925 296.729 43.43 296.951 43.3605C297.429 43.2232 297.936 43.2255 298.412 43.3671C298.888 43.5087 299.314 43.7836 299.639 44.1594L302.268 47.1602C302.493 47.4178 302.768 47.6285 303.075 47.7802C303.382 47.9319 303.716 48.0216 304.058 48.0441C304.4 48.0667 304.743 48.0217 305.068 47.9118C305.392 47.8018 305.692 47.629 305.95 47.4033L309.402 44.3886C309.66 44.1632 309.871 43.8892 310.023 43.5822C310.175 43.2753 310.265 42.9415 310.287 42.5999C310.31 42.2583 310.265 41.9156 310.155 41.5914C310.045 41.2672 309.872 40.9679 309.646 40.7105L307.692 38.4772C307.323 38.0536 307.1 37.5228 307.056 36.9631C307.013 36.4035 307.15 35.8445 307.448 35.3688C307.899 34.6391 308.299 33.879 308.644 33.0938C308.844 32.6328 309.172 32.2388 309.589 31.9592C310.006 31.6795 310.496 31.526 310.998 31.517ZM298.561 33.653C294.556 37.1574 286.367 36.1606 282.862 32.1595C279.357 28.1584 280.759 21.3927 284.764 17.9196C288.77 14.4464 295.599 16.2941 299.104 20.2952C302.608 24.2963 302.567 30.1486 298.561 33.6495V33.653Z" fill="#00A3FE"/>
<path d="M291.51 54.926C291.367 54.9266 291.224 54.9149 291.082 54.8913L286.562 54.1654C286.213 54.1105 285.878 53.9872 285.577 53.8026C285.276 53.618 285.014 53.3758 284.807 53.0898C284.6 52.8038 284.451 52.4797 284.37 52.1362C284.289 51.7927 284.276 51.4365 284.333 51.0882L284.914 47.4865C284.998 46.9629 284.915 46.4261 284.678 45.9518C284.44 45.4776 284.059 45.0899 283.589 44.8434H283.554C283.101 44.608 282.586 44.5151 282.079 44.5771C281.571 44.6391 281.094 44.853 280.71 45.1907L278.13 47.4483C277.865 47.6807 277.556 47.8587 277.222 47.9719C276.887 48.0851 276.534 48.1315 276.182 48.1082C275.829 48.085 275.485 47.9927 275.169 47.8366C274.852 47.6804 274.569 47.4635 274.337 47.1982L271.315 43.7494C271.082 43.4842 270.904 43.1756 270.791 42.8415C270.677 42.5074 270.631 42.1542 270.655 41.8021C270.679 41.4501 270.771 41.1062 270.928 40.7901C271.085 40.4741 271.303 40.192 271.569 39.9602L274.153 37.7026C274.535 37.3631 274.806 36.9164 274.93 36.4206C275.054 35.9249 275.025 35.4033 274.848 34.9241V34.8893C274.668 34.3925 274.336 33.9649 273.899 33.6669C273.462 33.369 272.943 33.2158 272.414 33.2291L268.76 33.3264C268.047 33.3441 267.356 33.0787 266.84 32.5884C266.323 32.0981 266.022 31.4229 266.002 30.7111L265.881 26.1335C265.863 25.4222 266.128 24.7329 266.618 24.2166C267.108 23.7004 267.783 23.3992 268.495 23.3792L272.748 23.2646C273.241 23.2545 273.719 23.0996 274.124 22.8191C274.53 22.5387 274.843 22.1452 275.025 21.6878C275.116 21.4586 275.213 21.2328 275.31 21.0105C275.503 20.5694 275.566 20.0825 275.492 19.6069C275.417 19.1313 275.208 18.6869 274.89 18.3258L272.261 15.325C271.792 14.789 271.555 14.089 271.602 13.3786C271.649 12.6683 271.976 12.0055 272.511 11.5357L275.957 8.52102C276.223 8.28836 276.532 8.11032 276.866 7.99712C277.201 7.88391 277.554 7.83777 277.907 7.86132C278.259 7.88488 278.603 7.97767 278.92 8.13438C279.236 8.29109 279.519 8.50863 279.751 8.77456L281.705 11.0043C282.065 11.4144 282.549 11.6972 283.083 11.8104C283.618 11.9237 284.174 11.8615 284.671 11.633C285.46 11.2805 286.274 10.9834 287.104 10.7438C287.568 10.6111 287.984 10.3502 288.305 9.99131C288.626 9.63242 288.839 9.19015 288.919 8.71552L289.518 4.99575C289.631 4.29299 290.019 3.66403 290.597 3.24719C291.175 2.83036 291.895 2.65976 292.598 2.77292L297.118 3.49881C297.822 3.61311 298.452 4.00158 298.87 4.57906C299.288 5.15653 299.459 5.87592 299.347 6.57952L298.923 9.20524C298.833 9.74184 298.92 10.2931 299.171 10.776C299.422 11.259 299.823 11.6474 300.314 11.883C300.512 11.9768 300.707 12.0775 300.901 12.1783C301.353 12.4118 301.864 12.5036 302.369 12.4416C302.873 12.3796 303.347 12.1668 303.728 11.831L305.55 10.2402C306.087 9.77209 306.788 9.53587 307.499 9.58341C308.211 9.63094 308.874 9.95835 309.344 10.4938L312.362 13.9357C312.594 14.2009 312.772 14.5093 312.886 14.8433C312.999 15.1772 313.045 15.5302 313.022 15.8821C312.999 16.234 312.907 16.5778 312.75 16.894C312.594 17.2102 312.377 17.4926 312.111 17.7249L310.289 19.3191C309.905 19.6522 309.631 20.0936 309.504 20.5853C309.376 21.0769 309.4 21.5957 309.573 22.0733C309.65 22.2817 309.723 22.4901 309.792 22.6985C309.96 23.216 310.291 23.6651 310.736 23.9782C311.182 24.2914 311.717 24.4517 312.261 24.4351L314.928 24.3622C315.64 24.3444 316.33 24.6093 316.847 25.0989C317.363 25.5885 317.665 26.2628 317.685 26.974L317.807 31.5516C317.825 32.2625 317.561 32.9519 317.071 33.4682C316.582 33.9846 315.907 34.2858 315.195 34.3058L311.426 34.41C310.944 34.4252 310.476 34.5769 310.076 34.8474C309.677 35.1179 309.362 35.4962 309.17 35.9382C308.825 36.7287 308.424 37.4935 307.97 38.227C307.679 38.6875 307.544 39.2298 307.586 39.773C307.628 40.3162 307.844 40.8314 308.203 41.2418L310.157 43.475C310.39 43.7402 310.568 44.0486 310.681 44.3826C310.795 44.7165 310.841 45.0695 310.818 45.4214C310.795 45.7733 310.702 46.1171 310.546 46.4333C310.39 46.7495 310.172 47.0319 309.907 47.2642L306.444 50.272C306.178 50.5047 305.869 50.6827 305.535 50.7959C305.2 50.9091 304.847 50.9552 304.494 50.9317C304.142 50.9081 303.798 50.8153 303.481 50.6586C303.165 50.5019 302.882 50.2844 302.65 50.0185L300.022 47.0176C299.705 46.6546 299.292 46.3891 298.83 46.2519C298.369 46.1148 297.877 46.1117 297.414 46.2431C297.181 46.3126 296.941 46.3786 296.718 46.4376C296.241 46.5579 295.809 46.816 295.477 47.1798C295.145 47.5436 294.927 47.9969 294.851 48.4833L294.177 52.6789C294.072 53.3088 293.746 53.8809 293.257 54.2926C292.769 54.7044 292.149 54.9289 291.51 54.926ZM282.376 44.3676C282.809 44.3669 283.237 44.4718 283.621 44.6732L283.655 44.6906C284.152 44.9546 284.553 45.3673 284.802 45.8706C285.051 46.3739 285.137 46.9427 285.046 47.4969L284.465 51.0986C284.359 51.7593 284.519 52.4352 284.91 52.9786C285.3 53.5221 285.891 53.8888 286.552 53.9987L291.072 54.7211C291.733 54.8275 292.409 54.6679 292.953 54.2773C293.496 53.8868 293.862 53.297 293.972 52.6372L294.646 48.4416C294.727 47.9245 294.958 47.4425 295.311 47.0558C295.664 46.6692 296.123 46.3949 296.632 46.2674C296.864 46.2084 297.101 46.1459 297.327 46.0764C297.821 45.9339 298.345 45.9357 298.838 46.0815C299.331 46.2274 299.772 46.5113 300.109 46.8995L302.737 49.9004C302.956 50.1504 303.222 50.3549 303.52 50.5021C303.818 50.6493 304.142 50.7364 304.474 50.7583C304.805 50.7803 305.138 50.7366 305.453 50.6299C305.768 50.5232 306.058 50.3556 306.308 50.1365L309.757 47.1218C310.262 46.6805 310.572 46.0569 310.617 45.388C310.662 44.7191 310.439 44.0597 309.997 43.5549L308.04 41.3216C307.658 40.8859 307.428 40.3389 307.383 39.762C307.338 39.185 307.48 38.609 307.789 38.1194C308.239 37.3921 308.638 36.6343 308.982 35.8514C309.186 35.3822 309.52 34.9806 309.944 34.6935C310.368 34.4063 310.866 34.2454 311.378 34.2294L315.143 34.1252C315.814 34.1061 316.449 33.8224 316.911 33.3361C317.372 32.8497 317.622 32.2006 317.605 31.5308L317.483 26.9566C317.465 26.2862 317.181 25.6505 316.694 25.1888C316.207 24.7272 315.557 24.4773 314.886 24.4941L312.219 24.5671C311.642 24.5834 311.076 24.4134 310.603 24.0824C310.131 23.7514 309.778 23.277 309.597 22.7298C309.528 22.5214 309.458 22.3165 309.382 22.1115C309.197 21.6042 309.171 21.0528 309.306 20.5301C309.441 20.0074 309.732 19.538 310.14 19.1836L311.962 17.5929C312.212 17.3741 312.417 17.1082 312.564 16.8102C312.712 16.5123 312.799 16.1883 312.821 15.8567C312.843 15.5251 312.799 15.1924 312.692 14.8777C312.586 14.563 312.418 14.2724 312.198 14.0225L309.18 10.5771C308.737 10.0746 308.113 9.76772 307.443 9.72347C306.774 9.67922 306.115 9.90121 305.609 10.341L303.787 11.9317C303.382 12.2876 302.878 12.5129 302.342 12.5779C301.806 12.643 301.262 12.5449 300.783 12.2964C300.592 12.1956 300.397 12.0949 300.202 12.0011C299.681 11.7512 299.255 11.3392 298.988 10.827C298.721 10.3148 298.627 9.72994 298.721 9.16008L299.145 6.53437C299.253 5.87357 299.094 5.19717 298.703 4.65351C298.311 4.10986 297.721 3.74331 297.059 3.63427L292.539 2.9049C291.878 2.79951 291.202 2.95947 290.659 3.34987C290.116 3.74026 289.749 4.32941 289.639 4.9888L289.038 8.70856C288.953 9.2129 288.727 9.68299 288.386 10.0646C288.045 10.4462 287.603 10.7238 287.111 10.8654C286.288 11.1018 285.483 11.3966 284.702 11.7476C284.175 11.9883 283.584 12.0528 283.017 11.9314C282.45 11.8101 281.937 11.5093 281.555 11.0738L279.601 8.84402C279.382 8.59399 279.116 8.38951 278.818 8.24229C278.521 8.09507 278.196 8.008 277.865 7.98606C277.533 7.96413 277.2 8.00775 276.885 8.11444C276.571 8.22114 276.28 8.38881 276.03 8.60785L272.584 11.6226C272.08 12.0644 271.772 12.6879 271.727 13.3565C271.682 14.0251 271.904 14.6843 272.345 15.1895L274.973 18.1903C275.312 18.5737 275.534 19.0454 275.614 19.5504C275.694 20.0554 275.629 20.5727 275.425 21.0418C275.328 21.2606 275.23 21.4864 275.14 21.7121C274.946 22.2007 274.611 22.6207 274.178 22.9193C273.744 23.2179 273.232 23.3815 272.706 23.3897L268.454 23.5043C268.121 23.5128 267.794 23.5868 267.49 23.7218C267.187 23.8569 266.913 24.0505 266.684 24.2915C266.456 24.5325 266.277 24.8161 266.158 25.1262C266.039 25.4363 265.983 25.7668 265.992 26.0987L266.114 30.6764C266.132 31.3467 266.416 31.9825 266.903 32.4442C267.389 32.9058 268.04 33.1556 268.711 33.1388L272.365 33.0416C272.928 33.0265 273.481 33.1883 273.947 33.5043C274.412 33.8203 274.766 34.2744 274.959 34.8025V34.8303C275.147 35.34 275.176 35.8946 275.042 36.421C274.907 36.9474 274.617 37.4208 274.208 37.779L271.625 40.0366C271.374 40.2554 271.17 40.5213 271.022 40.8192C270.875 41.1172 270.788 41.4412 270.766 41.7728C270.744 42.1044 270.787 42.4371 270.894 42.7518C271.001 43.0666 271.169 43.3571 271.388 43.607L274.41 47.0524C274.629 47.3025 274.895 47.5071 275.193 47.6543C275.492 47.8016 275.816 47.8887 276.148 47.9106C276.48 47.9326 276.813 47.8889 277.128 47.7822C277.443 47.6754 277.734 47.5077 277.984 47.2885L280.561 45.031C281.063 44.5936 281.709 44.3573 282.376 44.3676Z" fill="#131F2D"/>
<g opacity="0.6">
<path d="M401.676 101.029H157.495C154.003 101.029 151.173 103.856 151.173 107.343V148.827C151.173 152.314 154.003 155.141 157.495 155.141H401.676C405.167 155.141 407.997 152.314 407.997 148.827V107.343C407.997 103.856 405.167 101.029 401.676 101.029Z" fill="#D5D6DA"/>
</g>
<g opacity="0.6">
<path d="M404.162 171.656H286.249C286.009 171.656 285.771 171.609 285.549 171.517C285.328 171.425 285.126 171.29 284.957 171.121C284.787 170.951 284.653 170.75 284.561 170.528C284.47 170.306 284.423 170.069 284.423 169.829V168.752C284.423 168.511 284.471 168.273 284.564 168.05C284.657 167.827 284.793 167.625 284.964 167.456C285.135 167.286 285.338 167.152 285.562 167.061C285.785 166.97 286.025 166.924 286.266 166.925L404.179 168.013C404.66 168.017 405.121 168.211 405.46 168.553C405.799 168.894 405.99 169.355 405.991 169.836C405.989 170.319 405.795 170.782 405.452 171.123C405.11 171.464 404.645 171.656 404.162 171.656Z" fill="#D5D6DA"/>
</g>
<path d="M395.341 125.959H316.225V122.962L395.341 123.664V125.959Z" fill="#657285"/>
<path d="M351.562 132.704H316.225V129.707L351.562 130.412V132.704Z" fill="#00A3FE"/>
<path d="M363.032 147.299H316.225V144.298L363.032 145.003V147.299Z" fill="#00A3FE"/>
<path d="M351.562 140.533H316.225V137.535L351.562 138.24V140.533Z" fill="#5C305D"/>
<path d="M377.33 140.533H356.617V137.535L377.33 138.24V140.533Z" fill="#657285"/>
<path d="M391.951 132.704H356.617V129.707L391.951 130.412V132.704Z" fill="#00A3FE"/>
<g opacity="0.6">
<path d="M404.339 182.155L286.12 183.545C285.899 183.547 285.68 183.506 285.475 183.423C285.269 183.341 285.083 183.218 284.926 183.063C284.768 182.907 284.644 182.722 284.559 182.518C284.474 182.314 284.43 182.095 284.431 181.874V180.485C284.431 180.043 284.606 179.619 284.919 179.306C285.232 178.993 285.657 178.818 286.1 178.818H404.318C404.761 178.818 405.186 178.993 405.5 179.306C405.813 179.618 405.99 180.042 405.991 180.485C405.991 180.924 405.818 181.346 405.508 181.659C405.199 181.971 404.779 182.15 404.339 182.155Z" fill="#D5D6DA"/>
</g>
<g opacity="0.6">
<path d="M216.757 218.842H152.057V214.994L215.704 215.869C216.237 215.877 216.746 216.094 217.12 216.473C217.495 216.853 217.704 217.365 217.703 217.898C217.703 218.148 217.603 218.389 217.426 218.566C217.248 218.743 217.008 218.842 216.757 218.842Z" fill="#D5D6DA"/>
</g>
<g opacity="0.6">
<path d="M236.98 228.244L153.121 229.363C152.982 229.365 152.844 229.341 152.715 229.289C152.586 229.238 152.469 229.162 152.369 229.065C152.27 228.968 152.192 228.852 152.138 228.724C152.084 228.597 152.057 228.459 152.057 228.321V226.619C152.057 226.343 152.167 226.077 152.362 225.882C152.558 225.687 152.823 225.577 153.1 225.577H236.959C237.235 225.577 237.501 225.687 237.696 225.882C237.892 226.077 238.002 226.343 238.002 226.619V227.202C238.002 227.475 237.895 227.737 237.704 227.932C237.512 228.127 237.253 228.239 236.98 228.244Z" fill="#D5D6DA"/>
</g>
<g opacity="0.6">
<path d="M303.801 228.255L245.133 229.352C244.954 229.355 244.776 229.323 244.609 229.257C244.443 229.19 244.291 229.092 244.163 228.966C244.036 228.841 243.934 228.691 243.865 228.526C243.795 228.361 243.76 228.184 243.76 228.005V226.911C243.76 226.553 243.902 226.21 244.155 225.958C244.408 225.705 244.751 225.563 245.109 225.563H303.801C304.158 225.564 304.5 225.706 304.753 225.959C305.005 226.212 305.147 226.554 305.147 226.911C305.147 227.267 305.005 227.609 304.753 227.861C304.5 228.113 304.158 228.255 303.801 228.255Z" fill="#D5D6DA"/>
</g>
<g opacity="0.6">
<path d="M404.339 197.357L286.12 198.747C285.899 198.749 285.68 198.708 285.475 198.625C285.269 198.543 285.083 198.42 284.926 198.265C284.768 198.109 284.644 197.924 284.559 197.72C284.474 197.516 284.43 197.297 284.431 197.076V195.687C284.431 195.245 284.606 194.821 284.919 194.508C285.232 194.195 285.657 194.02 286.1 194.02H404.318C404.761 194.02 405.186 194.195 405.5 194.508C405.813 194.82 405.99 195.244 405.991 195.687C405.991 196.126 405.818 196.548 405.508 196.861C405.199 197.173 404.779 197.352 404.339 197.357Z" fill="#D5D6DA"/>
</g>
<path d="M204.869 162.528H156.737C153.664 162.528 151.173 165.016 151.173 168.086V198.153C151.173 201.222 153.664 203.71 156.737 203.71H204.869C207.942 203.71 210.432 201.222 210.432 198.153V168.086C210.432 165.016 207.942 162.528 204.869 162.528Z" fill="#D5D6DA"/>
<g opacity="0.6">
<path d="M266.677 162.528H223.12C220.506 162.528 218.388 164.645 218.388 167.255V198.983C218.388 201.593 220.506 203.71 223.12 203.71H266.677C269.29 203.71 271.409 201.593 271.409 198.983V167.255C271.409 164.645 269.29 162.528 266.677 162.528Z" fill="#D5D6DA"/>
</g>
<path d="M206.507 226.591C206.19 243.738 204.952 267.21 201.051 287.792C194.553 322.135 154.539 345.697 147.157 349.784C146.797 349.983 146.395 350.095 145.984 350.111C145.573 350.126 145.164 350.046 144.79 349.875C82.2031 321.155 83.1801 277.511 83.1801 277.511V226.251C83.18 225.559 83.4523 224.894 83.9382 224.401C84.4242 223.908 85.0848 223.626 85.7774 223.615C95.3079 223.458 128.545 221.666 143.072 204.623C143.309 204.348 143.601 204.125 143.929 203.969C144.257 203.812 144.614 203.725 144.978 203.714C145.341 203.702 145.703 203.765 146.04 203.901C146.378 204.036 146.684 204.239 146.938 204.498C153.197 210.851 173.6 228.463 206.395 226.598L206.507 226.591Z" fill="#00A3FE"/>
<path d="M145.833 341.438C145.792 341.437 145.752 341.429 145.714 341.414C132.954 335.669 122.119 328.737 113.503 320.797C106.608 314.445 101.115 307.436 97.1612 299.958C90.4436 287.233 90.5827 277.442 90.5827 277.344V234.381C90.575 233.209 91.0269 232.08 91.8417 231.236C92.6566 230.392 93.7697 229.901 94.9429 229.866C99.623 229.706 108.889 229.088 118.326 226.713C129.584 223.878 137.884 219.419 143.013 213.466C143.252 213.184 143.547 212.956 143.88 212.795C144.213 212.634 144.575 212.545 144.945 212.532C145.314 212.52 145.682 212.585 146.025 212.723C146.367 212.861 146.677 213.069 146.935 213.334C150.412 216.904 159.762 225.58 171.736 229.001C179.179 231.077 186.839 232.278 194.56 232.582C195.705 232.63 196.785 233.124 197.57 233.958C198.354 234.793 198.78 235.901 198.756 237.045C198.256 257.078 196.802 273.222 194.306 286.399C192.866 293.995 189.438 301.618 184.083 309.051C179.81 314.987 174.32 320.818 167.762 326.382C161.021 332.105 153.72 337.134 145.968 341.393C145.927 341.419 145.881 341.435 145.833 341.438ZM145.036 213.115H144.967C144.676 213.125 144.39 213.195 144.127 213.321C143.865 213.446 143.631 213.624 143.44 213.844C138.253 219.895 129.856 224.413 118.479 227.275C108.99 229.665 99.6821 230.286 94.9742 230.446C93.9522 230.477 92.9827 230.905 92.2721 231.64C91.5616 232.374 91.1662 233.357 91.1703 234.378V277.362C91.1703 277.466 91.0347 287.135 97.6967 299.739C101.608 307.141 107.064 314.091 113.914 320.394C122.45 328.254 133.183 335.131 145.822 340.831C153.493 336.601 160.722 331.617 167.401 325.951C177.637 317.269 190.519 303.331 193.743 286.302C196.232 273.159 197.682 257.044 198.183 237.042C198.199 236.048 197.828 235.088 197.147 234.363C196.466 233.639 195.529 233.208 194.535 233.162C186.772 232.855 179.071 231.646 171.587 229.561C159.48 226.087 150.029 217.345 146.532 213.74C146.338 213.54 146.105 213.382 145.848 213.274C145.591 213.167 145.315 213.113 145.036 213.115Z" fill="#131F2D"/>
<path d="M159.25 298.52H119.644C117.881 298.519 116.191 297.818 114.945 296.573C113.698 295.328 112.997 293.64 112.996 291.88V267.47C112.997 265.709 113.697 264.02 114.944 262.774C116.19 261.529 117.88 260.828 119.644 260.826H121.876C122.831 256.891 125.083 253.39 128.27 250.887C131.457 248.383 135.393 247.022 139.447 247.022C143.501 247.022 147.438 248.383 150.624 250.887C153.811 253.39 156.063 256.891 157.018 260.826H159.25C161.014 260.828 162.705 261.528 163.952 262.774C165.199 264.02 165.9 265.709 165.902 267.47V291.88C165.899 293.641 165.197 295.329 163.951 296.574C162.704 297.818 161.013 298.519 159.25 298.52ZM119.644 261.396C118.032 261.398 116.487 262.039 115.348 263.178C114.208 264.317 113.568 265.86 113.566 267.47V291.88C113.568 293.489 114.209 295.032 115.348 296.171C116.487 297.309 118.032 297.949 119.644 297.951H159.25C160.862 297.949 162.407 297.309 163.547 296.171C164.687 295.033 165.329 293.49 165.332 291.88V267.47C165.33 265.86 164.689 264.316 163.549 263.177C162.408 262.038 160.863 261.397 159.25 261.396H156.792C156.728 261.396 156.665 261.374 156.615 261.335C156.564 261.295 156.529 261.239 156.514 261.177C155.625 257.32 153.453 253.879 150.353 251.415C147.253 248.951 143.409 247.609 139.447 247.609C135.485 247.609 131.641 248.951 128.541 251.415C125.441 253.879 123.269 257.32 122.38 261.177C122.366 261.24 122.33 261.296 122.28 261.335C122.229 261.375 122.166 261.396 122.102 261.396H119.644ZM152.244 261.396H126.653C126.609 261.396 126.565 261.386 126.525 261.366C126.485 261.346 126.45 261.317 126.424 261.281C126.397 261.245 126.379 261.204 126.371 261.16C126.364 261.116 126.366 261.07 126.379 261.027C127.248 258.244 128.984 255.811 131.335 254.084C133.686 252.356 136.528 251.424 139.447 251.424C142.366 251.424 145.208 252.356 147.559 254.084C149.91 255.811 151.647 258.244 152.515 261.027C152.529 261.07 152.533 261.115 152.526 261.159C152.518 261.203 152.501 261.245 152.474 261.281C152.448 261.317 152.413 261.346 152.373 261.366C152.333 261.386 152.289 261.396 152.244 261.396ZM127.046 260.826H151.855C150.966 258.247 149.293 256.01 147.07 254.426C144.847 252.842 142.185 251.99 139.454 251.99C136.723 251.99 134.061 252.842 131.838 254.426C129.615 256.01 127.942 258.247 127.053 260.826H127.046Z" fill="#131F2D"/>
<path d="M163.107 257.249H125.795C122.025 257.249 118.969 260.301 118.969 264.066V287.556C118.969 291.321 122.025 294.373 125.795 294.373H163.107C166.876 294.373 169.932 291.321 169.932 287.556V264.066C169.932 260.301 166.876 257.249 163.107 257.249Z" fill="#131F2D"/>
<path d="M144.452 279.012C140.931 279.012 137.489 277.97 134.561 276.016C131.632 274.062 129.35 271.285 128.002 268.036C126.654 264.786 126.302 261.21 126.988 257.761C127.675 254.311 129.371 251.142 131.861 248.655C134.351 246.168 137.523 244.474 140.977 243.788C144.43 243.102 148.01 243.454 151.263 244.801C154.516 246.147 157.297 248.427 159.252 251.352C161.208 254.276 162.252 257.715 162.251 261.232C162.246 265.946 160.369 270.465 157.032 273.798C153.695 277.131 149.171 279.006 144.452 279.012ZM144.452 247.843C141.801 247.843 139.209 248.627 137.005 250.098C134.8 251.569 133.081 253.66 132.066 256.106C131.051 258.553 130.785 261.245 131.302 263.842C131.819 266.44 133.095 268.826 134.97 270.699C136.844 272.572 139.232 273.847 141.833 274.364C144.433 274.881 147.128 274.616 149.578 273.603C152.027 272.589 154.121 270.873 155.594 268.671C157.067 266.469 157.853 263.881 157.853 261.232C157.849 257.683 156.436 254.28 153.924 251.77C151.412 249.26 148.006 247.848 144.452 247.843Z" fill="#131F2D"/>
<path d="M144.452 277.261C143.96 277.26 143.489 277.064 143.141 276.717C142.793 276.369 142.597 275.898 142.596 275.406V266.414C142.597 265.923 142.793 265.452 143.141 265.104C143.489 264.756 143.96 264.561 144.452 264.56C144.944 264.562 145.415 264.758 145.762 265.105C146.109 265.453 146.305 265.923 146.306 266.414V275.406C146.305 275.897 146.109 276.368 145.762 276.716C145.415 277.063 144.944 277.259 144.452 277.261Z" fill="#00A3FE"/>
<path d="M144.453 285.413C147.216 285.413 149.456 283.175 149.456 280.415C149.456 277.654 147.216 275.417 144.453 275.417C141.689 275.417 139.449 277.654 139.449 280.415C139.449 283.175 141.689 285.413 144.453 285.413Z" fill="#00A3FE"/>
<path d="M235.453 150.299C235.343 150.299 235.235 150.273 235.137 150.223L228.002 146.66C227.918 146.619 227.842 146.562 227.781 146.493C227.719 146.423 227.672 146.341 227.642 146.253C227.613 146.164 227.601 146.071 227.609 145.978C227.616 145.885 227.642 145.794 227.685 145.711C227.726 145.627 227.783 145.552 227.853 145.49C227.923 145.429 228.004 145.382 228.093 145.352C228.181 145.323 228.275 145.311 228.368 145.319C228.461 145.326 228.552 145.352 228.635 145.395L235.78 148.952C235.938 149.012 236.068 149.127 236.148 149.275C236.227 149.424 236.249 149.597 236.21 149.761C236.172 149.925 236.075 150.069 235.937 150.167C235.8 150.265 235.631 150.309 235.464 150.292L235.453 150.299Z" fill="#131F2D"/>
<path d="M225.314 158.854C225.126 158.86 224.944 158.791 224.807 158.663C224.67 158.534 224.59 158.357 224.584 158.17C224.578 157.982 224.647 157.8 224.775 157.663C224.904 157.526 225.081 157.446 225.269 157.44L233.196 156.905C233.384 156.892 233.568 156.954 233.71 157.077C233.851 157.201 233.938 157.375 233.951 157.562C233.964 157.749 233.902 157.933 233.779 158.075C233.655 158.216 233.481 158.303 233.294 158.315L225.363 158.85L225.314 158.854Z" fill="#131F2D"/>
<path d="M229.8 170.725C229.64 170.734 229.481 170.688 229.351 170.594C229.222 170.5 229.128 170.364 229.087 170.209C229.047 170.054 229.06 169.89 229.127 169.744C229.193 169.598 229.308 169.48 229.452 169.409L236.347 165.362C236.427 165.315 236.515 165.285 236.607 165.272C236.699 165.259 236.792 165.264 236.882 165.288C236.972 165.311 237.056 165.351 237.13 165.407C237.204 165.463 237.266 165.533 237.314 165.613C237.361 165.692 237.391 165.781 237.404 165.872C237.417 165.964 237.412 166.057 237.389 166.147C237.365 166.237 237.325 166.321 237.269 166.395C237.213 166.469 237.143 166.531 237.063 166.578L230.172 170.624C230.059 170.691 229.931 170.726 229.8 170.725Z" fill="#131F2D"/>
<path d="M258.645 150.299C258.513 150.301 258.384 150.264 258.271 150.195C258.159 150.125 258.069 150.026 258.012 149.907C257.969 149.824 257.943 149.734 257.935 149.641C257.928 149.548 257.939 149.454 257.969 149.366C257.998 149.277 258.045 149.196 258.107 149.126C258.169 149.056 258.244 148.999 258.329 148.959L265.474 145.402C265.557 145.361 265.647 145.336 265.74 145.33C265.833 145.324 265.925 145.336 266.013 145.365C266.101 145.395 266.183 145.441 266.253 145.502C266.323 145.563 266.38 145.637 266.421 145.72C266.463 145.803 266.487 145.893 266.494 145.986C266.5 146.078 266.488 146.171 266.458 146.259C266.429 146.347 266.382 146.428 266.321 146.498C266.26 146.568 266.186 146.625 266.103 146.666L258.947 150.216C258.854 150.266 258.751 150.295 258.645 150.299Z" fill="#131F2D"/>
<path d="M268.784 158.854H268.735L260.804 158.319C260.617 158.306 260.442 158.219 260.319 158.078C260.196 157.937 260.134 157.752 260.147 157.565C260.16 157.378 260.246 157.204 260.388 157.081C260.529 156.958 260.714 156.896 260.901 156.909L268.829 157.444C269.016 157.45 269.194 157.53 269.323 157.667C269.451 157.803 269.52 157.986 269.514 158.173C269.508 158.36 269.428 158.538 269.291 158.666C269.154 158.794 268.971 158.863 268.784 158.857V158.854Z" fill="#131F2D"/>
<path d="M264.298 170.725C264.176 170.723 264.056 170.688 263.951 170.624L257.059 166.578C256.979 166.531 256.91 166.469 256.854 166.395C256.798 166.321 256.757 166.237 256.734 166.147C256.711 166.057 256.705 165.964 256.718 165.872C256.731 165.781 256.762 165.692 256.809 165.613C256.856 165.533 256.918 165.463 256.992 165.407C257.066 165.351 257.151 165.311 257.24 165.288C257.33 165.264 257.424 165.259 257.515 165.272C257.607 165.285 257.696 165.315 257.776 165.362L264.657 169.402C264.8 169.473 264.915 169.591 264.982 169.737C265.048 169.883 265.062 170.047 265.021 170.202C264.98 170.357 264.887 170.493 264.757 170.587C264.627 170.681 264.469 170.727 264.309 170.718L264.298 170.725Z" fill="#131F2D"/>
<path d="M261.242 154.815C261.242 163.984 255.154 171.486 247.504 171.937C247.254 171.951 247.003 171.958 246.753 171.958C238.756 171.958 232.264 164.282 232.264 154.815C232.232 151.002 233.342 147.266 235.453 144.089C238.106 140.175 242.181 137.667 246.753 137.667C248.004 137.669 249.248 137.858 250.442 138.23C253.571 139.264 256.255 141.33 258.053 144.089C260.164 147.266 261.275 151.002 261.242 154.815Z" fill="#657285"/>
<path d="M261.242 154.814C261.242 163.984 255.154 171.486 247.504 171.937C246.514 169.105 245.806 166.183 245.39 163.213C244.514 157.051 244.886 151.209 246.228 146.458C247.177 143.075 248.62 140.241 250.442 138.23C253.571 139.264 256.255 141.33 258.053 144.089C260.164 147.266 261.274 151.002 261.242 154.814Z" fill="#657285"/>
<path d="M246.753 150.515C252.994 150.515 258.054 147.639 258.054 144.093C258.054 140.546 252.994 137.671 246.753 137.671C240.512 137.671 235.453 140.546 235.453 144.093C235.453 147.639 240.512 150.515 246.753 150.515Z" fill="#131F2D"/>
<path d="M243.582 139.897C243.398 139.897 243.221 139.824 243.091 139.694C242.96 139.563 242.887 139.387 242.887 139.203C242.755 133.836 237.8 131.662 237.748 131.641C237.575 131.568 237.439 131.428 237.368 131.254C237.298 131.08 237.3 130.885 237.374 130.712C237.448 130.54 237.587 130.403 237.762 130.333C237.936 130.263 238.131 130.265 238.304 130.339C238.544 130.443 244.149 132.902 244.299 139.168C244.303 139.261 244.287 139.355 244.254 139.442C244.221 139.53 244.17 139.61 244.105 139.677C244.04 139.745 243.962 139.798 243.876 139.835C243.79 139.871 243.697 139.89 243.603 139.89L243.582 139.897Z" fill="#131F2D"/>
<path d="M249.431 141.714C249.254 141.714 249.083 141.647 248.954 141.526C248.825 141.406 248.747 141.241 248.735 141.064C248.134 133.5 253.297 130.506 253.516 130.381C253.679 130.289 253.873 130.265 254.053 130.315C254.234 130.365 254.387 130.485 254.479 130.648C254.572 130.811 254.595 131.004 254.545 131.185C254.495 131.365 254.375 131.518 254.212 131.61C254.017 131.721 249.618 134.323 250.143 140.953C250.152 141.045 250.142 141.139 250.114 141.227C250.086 141.315 250.04 141.397 249.98 141.468C249.92 141.539 249.846 141.596 249.763 141.638C249.68 141.68 249.589 141.704 249.497 141.71L249.431 141.714Z" fill="#131F2D"/>
<g opacity="0.4">
<path d="M289.288 198.476C312.275 175.515 312.275 138.286 289.288 115.325C266.3 92.3628 229.031 92.3628 206.044 115.325C183.056 138.286 183.056 175.515 206.043 198.476C229.031 221.438 266.3 221.438 289.288 198.476Z" fill="#00A3FE"/>
</g>
<path d="M314.58 207.009C314.58 207.009 304.177 207.235 301.325 202.682C298.474 198.128 303.311 194.166 303.311 194.166L318.787 202.525L314.58 207.009Z" fill="#FF7955"/>
<path d="M298.37 183.195L293.843 190.497L408.662 261.526L413.189 254.224L298.37 183.195Z" fill="#131F2D"/>
<path d="M414.297 257.249L411.835 261.215C411.366 261.972 410.615 262.512 409.747 262.716C408.879 262.92 407.965 262.771 407.207 262.302L347.309 225.243C346.551 224.774 346.01 224.023 345.806 223.155C345.602 222.288 345.751 221.375 346.22 220.617L348.682 216.651C349.152 215.894 349.903 215.354 350.771 215.15C351.639 214.946 352.552 215.095 353.31 215.564L413.209 252.622C413.967 253.092 414.507 253.843 414.711 254.711C414.915 255.578 414.766 256.491 414.297 257.249Z" fill="#131F2D"/>
<path d="M195.279 124.487C188.862 134.836 185.66 146.855 186.081 159.022C186.501 171.189 190.523 182.958 197.64 192.842C204.756 202.725 214.647 210.279 226.061 214.547C237.475 218.816 249.9 219.608 261.765 216.822C273.629 214.037 284.401 207.8 292.717 198.9C301.033 190 306.52 178.837 308.485 166.822C310.449 154.807 308.803 142.48 303.754 131.399C298.705 120.319 290.48 110.983 280.119 104.572C273.239 100.315 265.587 97.4528 257.6 96.1498C249.614 94.8468 241.448 95.1279 233.57 96.9772C225.692 98.8265 218.255 102.208 211.685 106.928C205.116 111.648 199.541 117.614 195.279 124.487ZM295.456 186.469C289.601 195.911 281.074 203.407 270.954 208.008C260.833 212.61 249.574 214.11 238.601 212.32C227.627 210.53 217.431 205.529 209.302 197.951C201.173 190.372 195.477 180.556 192.933 169.743C190.39 158.931 191.113 147.608 195.011 137.206C198.91 126.804 205.809 117.791 214.836 111.306C223.863 104.821 234.613 101.155 245.726 100.772C256.838 100.39 267.815 103.307 277.268 109.156C283.544 113.039 288.994 118.119 293.305 124.107C297.616 130.094 300.704 136.87 302.393 144.049C304.082 151.229 304.339 158.67 303.148 165.948C301.958 173.227 299.344 180.2 295.456 186.469Z" fill="#131F2D"/>
<path d="M407.527 220.134C404.746 199.334 381.397 187.584 381.397 187.584C381.397 187.584 383.376 233.94 387.375 232.572C394.203 230.231 403.557 230.182 407.527 220.134Z" fill="#00A3FE"/>
<path d="M361.902 337.059C361.902 337.059 361.724 340.532 359.374 341.463C357.024 342.393 350.264 343.085 352.722 345.391C354.131 346.717 360.959 346.085 362.879 346.124C364.798 346.162 366.582 347.075 368.046 345.811C369.656 344.422 368.275 337.236 368.275 337.236C368.275 337.236 366.592 338.066 365.104 337.986C362.955 337.871 361.902 337.059 361.902 337.059Z" fill="#131F2D"/>
<path d="M345.042 249.285C345.49 256.512 346.339 265.893 347.907 277.369C350.901 299.25 354.534 321.301 356.325 331.877C356.603 333.684 357.482 335.345 358.82 336.592C360.159 337.839 361.879 338.599 363.703 338.75L365.688 338.886C369.683 339.156 373.021 335.76 372.841 331.613L369.711 260.305L369.412 248.962C369.412 248.962 344.305 237.431 345.042 249.285Z" fill="#364154"/>
<path d="M383.919 337.663C383.919 337.663 383.741 341.136 381.391 342.063C379.04 342.991 372.281 343.685 374.736 345.995C376.147 347.318 382.973 346.69 384.896 346.728C386.818 346.766 388.599 347.68 390.062 346.412C391.669 345.023 390.288 337.837 390.288 337.837C390.288 337.837 388.609 338.667 387.117 338.587C384.972 338.472 383.919 337.663 383.919 337.663Z" fill="#131F2D"/>
<path d="M366.659 231.968C366.659 231.968 365.779 247.68 369.924 277.977C372.917 299.858 376.551 321.909 378.338 332.485C378.616 334.292 379.495 335.954 380.835 337.201C382.174 338.448 383.895 339.208 385.72 339.358L387.705 339.493C391.7 339.764 395.038 336.368 394.854 332.221L391.725 260.913L391.113 237.455L366.659 231.968Z" fill="#364154"/>
<path d="M370.907 284.145L370.608 284.103C370.608 283.975 372.323 271.096 373.602 266.473C374.882 261.851 380.834 257.791 380.904 257.738L381.071 257.992C381.015 258.03 375.16 261.997 373.901 266.553C372.643 271.11 370.907 284.016 370.907 284.145Z" fill="#131F2D"/>
<path d="M370.984 183.67L369.437 178.97L368.988 177.602L366.339 169.555L365.991 177.543L365.782 182.35L365.716 183.871C365.671 184.913 365.003 185.118 364.19 186.018C363.863 186.365 361.756 188.584 364.148 189.578C367.128 190.821 372.698 188.942 374.819 186.479C374.802 186.49 371.485 185.191 370.984 183.67Z" fill="#FF7955"/>
<path d="M374.129 173.942C375.026 169.259 372.418 164.825 368.305 164.039C364.191 163.253 360.129 166.412 359.232 171.096C358.335 175.78 360.943 180.214 365.056 181C369.17 181.786 373.232 178.626 374.129 173.942Z" fill="#FF7955"/>
<path d="M362.469 169.555C358.126 169.708 356.022 167.349 355.97 165.165C355.908 162.362 357.782 159.882 359.962 160.924C362.142 161.966 361.207 159.41 363.303 159.139C367.222 158.632 367.956 161.257 371.161 161.386C375.393 161.552 380.202 168.19 376.669 173.035C376.669 173.035 365.897 169.433 362.469 169.555Z" fill="#131F2D"/>
<path d="M358.603 166.727C358.603 166.727 363.241 170.933 362.629 173.302C362.017 175.671 362.173 176.595 364.882 177.859C367.591 179.123 365.198 181.169 368.808 181.332C372.417 181.495 376.843 177.463 376.84 170.857C376.822 168.627 376.028 166.473 374.593 164.765L358.603 166.727Z" fill="#131F2D"/>
<path d="M360.288 173.198C360.523 172.863 360.876 172.628 361.276 172.541C361.676 172.453 362.094 172.519 362.448 172.726C362.608 172.841 362.743 172.988 362.843 173.158C362.944 173.328 363.008 173.516 363.032 173.712C363.056 173.908 363.039 174.106 362.982 174.295C362.925 174.484 362.829 174.659 362.701 174.81C362.467 175.145 362.114 175.379 361.714 175.466C361.314 175.553 360.895 175.486 360.542 175.278C360.382 175.164 360.247 175.017 360.146 174.848C360.045 174.678 359.981 174.49 359.957 174.294C359.933 174.098 359.95 173.9 360.007 173.711C360.064 173.522 360.16 173.348 360.288 173.198Z" fill="#FFB27D"/>
<path d="M378.411 174.858C378.386 174.857 378.362 174.848 378.342 174.833C378.323 174.817 378.309 174.796 378.303 174.771C378.114 174.186 377.715 173.692 377.183 173.382C377.171 173.376 377.16 173.367 377.15 173.356C377.141 173.345 377.135 173.332 377.131 173.318C377.127 173.304 377.126 173.29 377.128 173.276C377.13 173.262 377.134 173.248 377.142 173.236C377.148 173.224 377.157 173.212 377.168 173.203C377.179 173.194 377.192 173.187 377.205 173.183C377.219 173.179 377.233 173.178 377.247 173.179C377.261 173.18 377.275 173.184 377.288 173.191C377.878 173.533 378.316 174.085 378.515 174.737C378.519 174.751 378.519 174.765 378.517 174.779C378.515 174.793 378.51 174.807 378.503 174.819C378.495 174.832 378.486 174.842 378.474 174.851C378.462 174.859 378.449 174.865 378.435 174.869L378.411 174.858Z" fill="#131F2D"/>
<path d="M377.235 172.875C377.208 172.875 377.182 172.865 377.162 172.846C377.142 172.827 377.129 172.802 377.128 172.774C377.127 172.76 377.129 172.746 377.133 172.733C377.138 172.719 377.145 172.707 377.154 172.696C377.164 172.685 377.175 172.677 377.188 172.67C377.201 172.664 377.214 172.661 377.229 172.66C377.229 172.66 378.414 172.58 378.585 171.725C378.59 171.697 378.606 171.672 378.629 171.656C378.653 171.64 378.682 171.633 378.71 171.639C378.738 171.644 378.763 171.661 378.779 171.685C378.796 171.709 378.802 171.739 378.797 171.767C378.595 172.785 377.298 172.872 377.242 172.875H377.235Z" fill="#131F2D"/>
<path d="M360.619 160.757C360.54 160.757 360.461 160.746 360.386 160.722C360.067 160.623 359.767 160.473 359.496 160.278C359.25 160.07 358.952 159.931 358.634 159.876C358.317 159.821 357.99 159.852 357.688 159.965C357.674 159.969 357.66 159.971 357.645 159.97C357.631 159.968 357.617 159.964 357.605 159.957C357.592 159.95 357.581 159.941 357.572 159.93C357.563 159.919 357.556 159.906 357.552 159.892C357.548 159.879 357.546 159.864 357.548 159.85C357.549 159.836 357.553 159.822 357.56 159.809C357.567 159.797 357.576 159.785 357.587 159.776C357.599 159.767 357.611 159.761 357.625 159.757C357.958 159.636 358.317 159.605 358.666 159.666C359.015 159.726 359.342 159.878 359.614 160.104C359.867 160.287 360.148 160.427 360.445 160.521C360.522 160.546 360.604 160.554 360.684 160.542C360.764 160.531 360.841 160.501 360.908 160.455C361.384 160.132 361.499 159.066 361.499 159.066C361.502 159.037 361.516 159.012 361.538 158.993C361.56 158.975 361.588 158.966 361.617 158.968C361.631 158.97 361.645 158.974 361.658 158.981C361.671 158.988 361.682 158.997 361.692 159.008C361.701 159.02 361.707 159.033 361.711 159.047C361.715 159.061 361.716 159.076 361.714 159.09C361.714 159.135 361.589 160.25 361.019 160.632C360.902 160.714 360.762 160.757 360.619 160.757Z" fill="#131F2D"/>
<path d="M370.831 161.038C369.807 160.993 368.828 160.607 368.049 159.941C368.037 159.932 368.027 159.921 368.019 159.908C368.011 159.895 368.006 159.88 368.005 159.865C368.003 159.85 368.004 159.835 368.009 159.82C368.014 159.806 368.021 159.793 368.031 159.781C368.041 159.77 368.054 159.761 368.067 159.755C368.081 159.749 368.096 159.745 368.111 159.745C368.127 159.745 368.142 159.748 368.156 159.755C368.169 159.761 368.182 159.77 368.192 159.781C368.192 159.781 369.628 161.042 371.293 160.788C371.322 160.784 371.35 160.792 371.373 160.808C371.396 160.825 371.411 160.851 371.415 160.879C371.419 160.907 371.412 160.936 371.395 160.959C371.378 160.983 371.353 160.999 371.325 161.004C371.161 161.027 370.996 161.039 370.831 161.038Z" fill="#131F2D"/>
<path d="M361.45 175.577C361.349 175.58 361.248 175.567 361.151 175.539C361.143 175.538 361.136 175.535 361.129 175.531C361.123 175.527 361.117 175.522 361.113 175.515C361.109 175.509 361.106 175.502 361.105 175.494C361.104 175.486 361.105 175.479 361.107 175.471C361.109 175.464 361.113 175.457 361.119 175.451C361.124 175.446 361.13 175.441 361.138 175.439C361.145 175.436 361.152 175.435 361.16 175.435C361.168 175.436 361.175 175.438 361.182 175.442C361.22 175.442 362.163 175.737 362.83 174.487C362.833 174.48 362.837 174.475 362.843 174.47C362.848 174.466 362.854 174.463 362.86 174.461C362.867 174.459 362.874 174.458 362.881 174.459C362.887 174.46 362.894 174.462 362.9 174.466C362.912 174.472 362.92 174.483 362.924 174.496C362.928 174.509 362.927 174.523 362.921 174.535C362.444 175.428 361.815 175.577 361.45 175.577Z" fill="#131F2D"/>
<path d="M345.042 249.285C345.042 249.285 376.53 247.548 391.474 251.191L391.697 246.871L370.744 240.602L353.825 241.022L348.63 242.147L344.962 247.895L345.042 249.285Z" fill="#131F2D"/>
<path d="M388.679 196.663C388.679 196.663 385.897 184.576 368.953 184.576C339.399 184.576 347.695 209.017 344.962 247.878C344.962 247.878 364.009 243.689 391.575 249.267C391.575 249.267 394.259 228.223 390.789 210.434C389.875 205.731 390.031 200.747 388.679 196.663Z" fill="#00A3FE"/>
<path d="M365.553 184.576C365.553 184.576 356.071 184.715 349.023 191.463C341.975 198.212 332.9 207.502 330.974 212.848C328.602 219.447 332.969 226.046 338.512 226.178C344.054 226.31 349.023 222.243 349.023 222.243L365.553 184.576Z" fill="#00A3FE"/>
<path d="M392.465 239.782H392.256C393.08 224.538 390.42 208.933 390.393 208.777L390.598 208.742C390.612 208.888 393.275 224.518 392.465 239.782Z" fill="#131F2D"/>
<path d="M345.741 224.434L345.633 224.257C351.196 220.923 358.449 212.146 358.522 212.056L358.682 212.191C358.613 212.278 351.339 221.086 345.741 224.434Z" fill="#131F2D"/>
<path d="M307.063 208.749C306.993 213.06 328.359 228.814 341.183 226.181C354.813 223.403 337.994 208.239 337.994 208.239L312.873 202.463C312.873 202.463 307.132 204.384 307.063 208.749Z" fill="#00A3FE"/>
<path d="M312.873 202.463C312.941 201.961 312.886 201.45 312.713 200.974C312.54 200.497 312.253 200.071 311.878 199.73C310.592 198.594 309.246 193.415 308.401 194.714C307.556 196.013 308.335 200.146 307.056 200.591C305.776 201.035 312.873 202.463 312.873 202.463Z" fill="#FF7955"/>
<path d="M322.271 110.358H321.006C320.841 110.358 320.684 110.423 320.568 110.539C320.452 110.655 320.387 110.812 320.387 110.976V116.533C320.387 116.698 320.321 116.856 320.204 116.973C320.088 117.089 319.929 117.155 319.764 117.155H319.319C319.155 117.154 318.997 117.088 318.881 116.972C318.765 116.855 318.7 116.697 318.7 116.533V110.976C318.699 110.812 318.633 110.655 318.517 110.539C318.4 110.423 318.242 110.358 318.078 110.358H316.847C316.682 110.358 316.524 110.292 316.407 110.176C316.29 110.059 316.225 109.901 316.225 109.736V109.615C316.225 109.45 316.29 109.292 316.407 109.175C316.524 109.058 316.682 108.993 316.847 108.993H322.271C322.436 108.993 322.595 109.058 322.711 109.175C322.828 109.292 322.894 109.45 322.894 109.615V109.736C322.894 109.901 322.828 110.059 322.711 110.176C322.595 110.292 322.436 110.358 322.271 110.358Z" fill="#00A3FE"/>
<path d="M328.14 113.612H326.144C325.98 113.612 325.823 113.677 325.707 113.793C325.591 113.909 325.525 114.067 325.525 114.231V115.179C325.525 115.343 325.59 115.501 325.706 115.617C325.822 115.734 325.98 115.799 326.144 115.8H328.703C328.785 115.8 328.866 115.817 328.941 115.848C329.016 115.879 329.085 115.925 329.142 115.983C329.2 116.04 329.245 116.109 329.276 116.184C329.307 116.26 329.323 116.341 329.322 116.422V116.533C329.323 116.615 329.307 116.695 329.276 116.771C329.245 116.846 329.2 116.915 329.142 116.973C329.085 117.03 329.016 117.076 328.941 117.108C328.866 117.139 328.785 117.155 328.703 117.155H324.461C324.296 117.155 324.138 117.089 324.021 116.973C323.904 116.856 323.839 116.698 323.839 116.533V109.587C323.839 109.422 323.904 109.264 324.021 109.147C324.138 109.031 324.296 108.965 324.461 108.965H328.693C328.857 108.966 329.015 109.032 329.131 109.149C329.247 109.265 329.312 109.423 329.312 109.587V109.708C329.312 109.873 329.247 110.03 329.131 110.147C329.015 110.263 328.857 110.329 328.693 110.33H326.144C325.98 110.33 325.823 110.395 325.707 110.511C325.591 110.627 325.525 110.784 325.525 110.948V111.643C325.525 111.807 325.59 111.965 325.706 112.081C325.822 112.198 325.98 112.264 326.144 112.265H328.14C328.304 112.265 328.462 112.33 328.579 112.446C328.695 112.561 328.761 112.719 328.762 112.883V112.963C328.766 113.047 328.753 113.131 328.723 113.209C328.694 113.288 328.648 113.36 328.59 113.421C328.532 113.481 328.462 113.53 328.385 113.562C328.307 113.595 328.224 113.612 328.14 113.612Z" fill="#00A3FE"/>
<path d="M334.569 115.009C334.57 114.878 334.55 114.747 334.51 114.623C334.459 114.498 334.376 114.389 334.27 114.307C334.12 114.191 333.955 114.096 333.78 114.022C333.517 113.907 333.248 113.807 332.973 113.723C332.618 113.609 332.27 113.475 331.93 113.321C331.617 113.183 331.323 113.004 331.057 112.789C330.817 112.598 330.616 112.362 330.466 112.095C330.321 111.805 330.246 111.486 330.246 111.162C330.246 110.838 330.321 110.519 330.466 110.229C330.615 109.944 330.828 109.697 331.089 109.507C331.378 109.298 331.702 109.141 332.045 109.042C332.441 108.93 332.85 108.875 333.262 108.878C333.682 108.873 334.1 108.936 334.5 109.066C334.847 109.178 335.169 109.356 335.449 109.59C335.707 109.809 335.913 110.082 336.054 110.389C336.086 110.456 336.114 110.522 336.137 110.587C336.168 110.681 336.176 110.78 336.161 110.877C336.146 110.974 336.108 111.066 336.05 111.146C335.993 111.226 335.917 111.291 335.829 111.335C335.742 111.38 335.645 111.403 335.546 111.403H335.094C334.963 111.403 334.835 111.361 334.729 111.283C334.623 111.206 334.544 111.097 334.503 110.973C334.503 110.973 334.503 110.941 334.503 110.928C334.449 110.785 334.363 110.655 334.253 110.549C334.13 110.44 333.985 110.357 333.829 110.306C333.637 110.244 333.436 110.214 333.234 110.219C333.039 110.216 332.845 110.24 332.657 110.292C332.511 110.334 332.375 110.402 332.253 110.493C332.15 110.574 332.067 110.679 332.014 110.799C331.958 110.914 331.93 111.04 331.93 111.167C331.931 111.309 331.969 111.449 332.042 111.571C332.115 111.693 332.219 111.794 332.344 111.862C332.721 112.087 333.129 112.258 333.554 112.369C333.958 112.491 334.353 112.646 334.733 112.831C335.043 112.978 335.329 113.171 335.581 113.404C335.799 113.606 335.975 113.851 336.096 114.123C336.215 114.409 336.274 114.716 336.269 115.026C336.276 115.358 336.203 115.686 336.057 115.984C335.916 116.26 335.711 116.498 335.459 116.679C335.178 116.883 334.86 117.032 334.524 117.12C334.125 117.229 333.713 117.281 333.3 117.276C333.03 117.276 332.76 117.253 332.493 117.207C332.228 117.162 331.968 117.088 331.718 116.988C331.474 116.9 331.24 116.783 331.023 116.641C330.815 116.497 330.63 116.324 330.473 116.127C330.316 115.922 330.193 115.693 330.108 115.45V115.411C330.079 115.319 330.073 115.22 330.089 115.124C330.105 115.028 330.144 114.938 330.202 114.859C330.26 114.781 330.335 114.718 330.422 114.674C330.509 114.631 330.605 114.609 330.703 114.609H331.137C331.273 114.609 331.405 114.654 331.513 114.736C331.621 114.818 331.699 114.933 331.735 115.064C331.751 115.124 331.772 115.182 331.798 115.238C331.871 115.402 331.983 115.547 332.125 115.658C332.278 115.768 332.452 115.847 332.636 115.891C332.852 115.941 333.074 115.966 333.297 115.964C333.489 115.966 333.681 115.943 333.867 115.894C334.01 115.855 334.145 115.789 334.263 115.7C334.365 115.622 334.447 115.521 334.5 115.404C334.552 115.279 334.575 115.144 334.569 115.009Z" fill="#00A3FE"/>
<path d="M342.942 110.358H341.676C341.512 110.358 341.355 110.423 341.239 110.539C341.122 110.655 341.057 110.812 341.057 110.976V116.533C341.057 116.698 340.992 116.856 340.875 116.973C340.758 117.089 340.6 117.155 340.435 117.155H339.99C339.825 117.154 339.668 117.088 339.552 116.972C339.436 116.855 339.371 116.697 339.371 116.533V110.976C339.37 110.812 339.304 110.655 339.187 110.539C339.071 110.423 338.913 110.358 338.749 110.358H337.528C337.364 110.357 337.206 110.291 337.09 110.175C336.974 110.058 336.909 109.9 336.909 109.736V109.615C336.906 109.531 336.919 109.448 336.949 109.37C336.979 109.292 337.024 109.221 337.081 109.16C337.139 109.1 337.208 109.052 337.285 109.019C337.362 108.986 337.445 108.969 337.528 108.969H342.952C343.117 108.969 343.276 109.034 343.392 109.151C343.509 109.267 343.575 109.425 343.575 109.59V109.712C343.578 109.796 343.564 109.881 343.534 109.96C343.503 110.039 343.457 110.111 343.398 110.171C343.338 110.232 343.267 110.279 343.189 110.311C343.111 110.344 343.027 110.359 342.942 110.358Z" fill="#00A3FE"/>
<path d="M345.696 117.155H345.251C345.086 117.154 344.929 117.088 344.813 116.972C344.697 116.855 344.632 116.698 344.632 116.533V109.587C344.632 109.423 344.697 109.265 344.813 109.149C344.929 109.032 345.086 108.966 345.251 108.965H345.696C345.861 108.965 346.019 109.031 346.136 109.147C346.253 109.264 346.318 109.422 346.318 109.587V116.533C346.318 116.698 346.253 116.856 346.136 116.973C346.019 117.089 345.861 117.155 345.696 117.155Z" fill="#00A3FE"/>
<path d="M353.912 117.155H353.195C353.089 117.155 352.984 117.127 352.892 117.075C352.799 117.022 352.722 116.947 352.667 116.856L350.716 113.661C350.645 113.547 350.538 113.458 350.413 113.41C350.287 113.361 350.149 113.354 350.019 113.391C349.889 113.427 349.775 113.505 349.693 113.612C349.611 113.719 349.566 113.849 349.565 113.984V116.533C349.565 116.698 349.5 116.856 349.383 116.973C349.266 117.089 349.108 117.155 348.943 117.155H348.501C348.336 117.155 348.178 117.089 348.061 116.973C347.944 116.856 347.879 116.698 347.879 116.533V109.587C347.879 109.422 347.944 109.264 348.061 109.147C348.178 109.031 348.336 108.965 348.501 108.965H349.218C349.324 108.965 349.428 108.993 349.521 109.045C349.614 109.098 349.691 109.173 349.746 109.264L351.7 112.466C351.771 112.582 351.877 112.672 352.003 112.721C352.129 112.771 352.268 112.779 352.398 112.743C352.529 112.706 352.644 112.629 352.727 112.521C352.809 112.414 352.854 112.282 352.855 112.147V109.587C352.855 109.423 352.92 109.265 353.036 109.149C353.152 109.032 353.309 108.966 353.473 108.965H353.912C354.077 108.965 354.235 109.031 354.352 109.147C354.468 109.264 354.534 109.422 354.534 109.587V116.533C354.534 116.698 354.468 116.856 354.352 116.973C354.235 117.089 354.077 117.155 353.912 117.155Z" fill="#00A3FE"/>
<path d="M362.479 115.87C362.48 115.957 362.462 116.043 362.426 116.123C362.391 116.202 362.339 116.274 362.274 116.332C362.218 116.384 362.152 116.439 362.083 116.495C361.886 116.642 361.672 116.766 361.447 116.863C361.157 116.99 360.855 117.086 360.546 117.151C360.153 117.232 359.752 117.271 359.35 117.266C358.856 117.272 358.365 117.184 357.904 117.006C357.476 116.838 357.092 116.575 356.78 116.238C356.458 115.878 356.213 115.456 356.061 114.998C355.881 114.455 355.794 113.885 355.803 113.314V112.831C355.795 112.259 355.878 111.689 356.05 111.143C356.195 110.685 356.432 110.262 356.746 109.899C357.042 109.564 357.412 109.301 357.827 109.132C358.275 108.951 358.755 108.861 359.239 108.868C359.71 108.857 360.18 108.924 360.629 109.066C360.99 109.182 361.321 109.372 361.603 109.625C361.864 109.865 362.071 110.157 362.211 110.483C362.253 110.574 362.289 110.668 362.319 110.764C362.35 110.858 362.358 110.957 362.343 111.054C362.328 111.151 362.29 111.243 362.232 111.323C362.175 111.403 362.099 111.468 362.011 111.512C361.924 111.557 361.827 111.58 361.728 111.58H361.335C361.205 111.579 361.079 111.536 360.974 111.459C360.869 111.382 360.791 111.274 360.751 111.15L360.699 111.021C360.633 110.86 360.534 110.714 360.407 110.594C360.276 110.471 360.119 110.377 359.948 110.32C359.739 110.253 359.521 110.221 359.301 110.226C359.044 110.213 358.789 110.266 358.558 110.38C358.328 110.495 358.131 110.666 357.987 110.879C357.647 111.467 357.489 112.143 357.535 112.82V113.314C357.488 113.996 357.659 114.676 358.025 115.255C358.189 115.471 358.403 115.643 358.648 115.758C358.893 115.873 359.163 115.927 359.433 115.915C359.61 115.918 359.787 115.905 359.962 115.877C360.093 115.856 360.222 115.823 360.348 115.78C360.44 115.745 360.528 115.702 360.612 115.651C360.675 115.611 360.735 115.564 360.789 115.512V114.724C360.789 114.559 360.724 114.401 360.607 114.284C360.49 114.167 360.332 114.102 360.167 114.102H359.875C359.71 114.102 359.553 114.037 359.436 113.921C359.319 113.805 359.253 113.648 359.253 113.484C359.253 113.319 359.318 113.161 359.435 113.044C359.552 112.928 359.71 112.862 359.875 112.862H361.867C361.949 112.862 362.03 112.878 362.105 112.909C362.18 112.941 362.249 112.987 362.306 113.044C362.364 113.102 362.409 113.171 362.44 113.246C362.471 113.321 362.487 113.402 362.486 113.484L362.479 115.87Z" fill="#00A3FE"/>
</svg>
