<svg width="64" height="64" viewBox="0 0 64 64" fill="none" xmlns="http://www.w3.org/2000/svg">
<path fill-rule="evenodd" clip-rule="evenodd" d="M24.0793 8.91653C29.2891 7.69449 34.7109 7.69449 39.9207 8.91653C47.4442 10.6813 53.3187 16.5558 55.0835 24.0793C56.3055 29.2891 56.3055 34.7109 55.0835 39.9207C53.3187 47.4442 47.4442 53.3187 39.9207 55.0835C34.7109 56.3055 29.2891 56.3055 24.0793 55.0835C16.5558 53.3187 10.6813 47.4442 8.91653 39.9207C7.69449 34.7109 7.69449 29.2891 8.91653 24.0793C10.6813 16.5558 16.5558 10.6813 24.0793 8.91653ZM35.9733 26.6996C36.8069 26.3662 37.634 27.1934 37.3006 28.0269L35.2199 33.2287C34.8566 34.1368 34.1371 34.8564 33.229 35.2197L28.0271 37.3004C27.1936 37.6338 26.3664 36.8066 26.6998 35.9731L28.7806 30.7713C29.1438 29.8631 29.8634 29.1436 30.7715 28.7803L35.9733 26.6996ZM40.1448 29.1646C41.4785 25.8304 38.1698 22.5217 34.8356 23.8554L29.6338 25.9361C27.9473 26.6107 26.611 27.9471 25.9363 29.6336L23.8556 34.8354C22.522 38.1696 25.8307 41.4783 29.1648 40.1446L34.3666 38.0639C36.0532 37.3893 37.3895 36.0529 38.0641 34.3664L40.1448 29.1646Z" fill="#FCA311"/>
<path fill-rule="evenodd" clip-rule="evenodd" d="M24.0793 8.91653C29.2891 7.69449 34.7109 7.69449 39.9207 8.91653C47.4442 10.6813 53.3187 16.5558 55.0835 24.0793C56.3055 29.2891 56.3055 34.7109 55.0835 39.9207C53.3187 47.4442 47.4442 53.3187 39.9207 55.0835C34.7109 56.3055 29.2891 56.3055 24.0793 55.0835C16.5558 53.3187 10.6813 47.4442 8.91653 39.9207C7.69449 34.7109 7.69449 29.2891 8.91653 24.0793C10.6813 16.5558 16.5558 10.6813 24.0793 8.91653ZM35.9733 26.6996C36.8069 26.3662 37.634 27.1934 37.3006 28.0269L35.2199 33.2287C34.8566 34.1368 34.1371 34.8564 33.229 35.2197L28.0271 37.3004C27.1936 37.6338 26.3664 36.8066 26.6998 35.9731L28.7806 30.7713C29.1438 29.8631 29.8634 29.1436 30.7715 28.7803L35.9733 26.6996ZM40.1448 29.1646C41.4785 25.8304 38.1698 22.5217 34.8356 23.8554L29.6338 25.9361C27.9473 26.6107 26.611 27.9471 25.9363 29.6336L23.8556 34.8354C22.522 38.1696 25.8307 41.4783 29.1648 40.1446L34.3666 38.0639C36.0532 37.3893 37.3895 36.0529 38.0641 34.3664L40.1448 29.1646Z" fill="url(#paint0_linear_2_336)"/>
<defs>
<linearGradient id="paint0_linear_2_336" x1="8" y1="7.77778" x2="37.2452" y2="65.3112" gradientUnits="userSpaceOnUse">
<stop stop-color="#09C6F9"/>
<stop offset="1" stop-color="#045DE9"/>
</linearGradient>
</defs>
</svg>
