<svg width="64" height="64" viewBox="0 0 64 64" fill="none" xmlns="http://www.w3.org/2000/svg">
<path fill-rule="evenodd" clip-rule="evenodd" d="M21.1473 10C26.1541 10 30.4477 12.8537 32.604 16.975C35.2498 15.7933 38.1972 15.1344 41.3023 15.1344C52.701 15.1344 62 24.0272 62 35.0672C62 46.1071 52.7005 55 41.3018 55L17.1163 55C8.80014 55 2 48.5097 2 40.4334C2 35.1814 4.88064 30.5972 9.17547 28.0368C8.54707 26.5 8.20155 24.818 8.20155 23.0594C8.20155 15.9203 13.9238 10 21.1473 10ZM12.3876 23.0594C12.3876 18.0328 16.3832 14.0909 21.1473 14.0909C24.5396 14.0909 27.5335 16.0796 28.9845 19.0472C26.365 20.9179 24.218 23.3724 22.7526 26.2159C22.6524 26.4102 22.5554 26.6064 22.4617 26.8043C22.2751 26.7363 22.0867 26.6718 21.8967 26.6108C20.3917 26.1277 18.7836 25.8668 17.1163 25.8668C15.6987 25.8668 14.3237 26.0554 13.0185 26.4089C12.6122 25.3767 12.3876 24.2472 12.3876 23.0594Z" fill="#FCA311"/>
<path fill-rule="evenodd" clip-rule="evenodd" d="M21.1473 10C26.1541 10 30.4477 12.8537 32.604 16.975C35.2498 15.7933 38.1972 15.1344 41.3023 15.1344C52.701 15.1344 62 24.0272 62 35.0672C62 46.1071 52.7005 55 41.3018 55L17.1163 55C8.80014 55 2 48.5097 2 40.4334C2 35.1814 4.88064 30.5972 9.17547 28.0368C8.54707 26.5 8.20155 24.818 8.20155 23.0594C8.20155 15.9203 13.9238 10 21.1473 10ZM12.3876 23.0594C12.3876 18.0328 16.3832 14.0909 21.1473 14.0909C24.5396 14.0909 27.5335 16.0796 28.9845 19.0472C26.365 20.9179 24.218 23.3724 22.7526 26.2159C22.6524 26.4102 22.5554 26.6064 22.4617 26.8043C22.2751 26.7363 22.0867 26.6718 21.8967 26.6108C20.3917 26.1277 18.7836 25.8668 17.1163 25.8668C15.6987 25.8668 14.3237 26.0554 13.0185 26.4089C12.6122 25.3767 12.3876 24.2472 12.3876 23.0594Z" fill="url(#paint0_linear_2_350)"/>
<defs>
<linearGradient id="paint0_linear_2_350" x1="2" y1="9.79167" x2="24.5925" y2="69.0528" gradientUnits="userSpaceOnUse">
<stop stop-color="#09C6F9"/>
<stop offset="1" stop-color="#045DE9"/>
</linearGradient>
</defs>
</svg>
