<svg width="64" height="64" viewBox="0 0 64 64" fill="none" xmlns="http://www.w3.org/2000/svg">
<path fill-rule="evenodd" clip-rule="evenodd" d="M40.9202 46.4854L39.5221 46.7934V48.6517C39.5221 51.8389 37.5184 54.5503 34.7218 55.5552V60.56C34.7218 61.9076 33.6472 63 32.3216 63C30.996 63 29.9214 61.9076 29.9214 60.56V55.5552C27.1248 54.5503 25.1211 51.8389 25.1211 48.6517V46.9291C24.9125 46.8872 24.7042 46.8433 24.4961 46.7974L23.0797 46.4854C16.1695 44.963 10.7017 39.5969 8.96163 32.63C7.67946 27.4963 7.67946 22.1182 8.96163 16.9845C10.7017 10.0176 16.1696 4.65147 23.0797 3.12912L24.4961 2.81708C29.4413 1.72764 34.5587 1.72764 39.5039 2.81709L40.9202 3.12912C47.8305 4.65147 53.2984 10.0176 55.0384 16.9845C56.3205 22.1182 56.3205 27.4963 55.0384 32.63C53.2984 39.5969 47.8304 44.963 40.9202 46.4854ZM34.7218 47.5081C34.4434 47.5299 34.1648 47.5483 33.8861 47.5634C32.5654 47.635 31.2418 47.6314 29.9214 47.5525V48.6517C29.9214 49.9993 30.996 51.0917 32.3216 51.0917C33.6472 51.0917 34.7218 49.9993 34.7218 48.6517V47.5081ZM34.8013 15.1157C35.6294 15.7892 35.7636 17.0176 35.1012 17.8594L31.1964 22.8213H36.802C37.5401 22.8213 38.2129 23.2514 38.5326 23.9277C38.8524 24.604 38.7625 25.4068 38.3014 25.9927L31.9009 34.1261C31.2385 34.9679 30.0301 35.1044 29.2021 34.4309C28.374 33.7575 28.2397 32.5291 28.9022 31.6873L32.8069 26.7253H27.2013C26.4632 26.7253 25.7905 26.2952 25.4707 25.6189C25.151 24.9426 25.2409 24.1399 25.702 23.5539L32.1024 15.4206C32.7649 14.5788 33.9732 14.4423 34.8013 15.1157Z" fill="#FCA311"/>
<path fill-rule="evenodd" clip-rule="evenodd" d="M40.9202 46.4854L39.5221 46.7934V48.6517C39.5221 51.8389 37.5184 54.5503 34.7218 55.5552V60.56C34.7218 61.9076 33.6472 63 32.3216 63C30.996 63 29.9214 61.9076 29.9214 60.56V55.5552C27.1248 54.5503 25.1211 51.8389 25.1211 48.6517V46.9291C24.9125 46.8872 24.7042 46.8433 24.4961 46.7974L23.0797 46.4854C16.1695 44.963 10.7017 39.5969 8.96163 32.63C7.67946 27.4963 7.67946 22.1182 8.96163 16.9845C10.7017 10.0176 16.1696 4.65147 23.0797 3.12912L24.4961 2.81708C29.4413 1.72764 34.5587 1.72764 39.5039 2.81709L40.9202 3.12912C47.8305 4.65147 53.2984 10.0176 55.0384 16.9845C56.3205 22.1182 56.3205 27.4963 55.0384 32.63C53.2984 39.5969 47.8304 44.963 40.9202 46.4854ZM34.7218 47.5081C34.4434 47.5299 34.1648 47.5483 33.8861 47.5634C32.5654 47.635 31.2418 47.6314 29.9214 47.5525V48.6517C29.9214 49.9993 30.996 51.0917 32.3216 51.0917C33.6472 51.0917 34.7218 49.9993 34.7218 48.6517V47.5081ZM34.8013 15.1157C35.6294 15.7892 35.7636 17.0176 35.1012 17.8594L31.1964 22.8213H36.802C37.5401 22.8213 38.2129 23.2514 38.5326 23.9277C38.8524 24.604 38.7625 25.4068 38.3014 25.9927L31.9009 34.1261C31.2385 34.9679 30.0301 35.1044 29.2021 34.4309C28.374 33.7575 28.2397 32.5291 28.9022 31.6873L32.8069 26.7253H27.2013C26.4632 26.7253 25.7905 26.2952 25.4707 25.6189C25.151 24.9426 25.2409 24.1399 25.702 23.5539L32.1024 15.4206C32.7649 14.5788 33.9732 14.4423 34.8013 15.1157Z" fill="url(#paint0_linear_2_329)"/>
<defs>
<linearGradient id="paint0_linear_2_329" x1="8" y1="1.71759" x2="49.9357" y2="66.635" gradientUnits="userSpaceOnUse">
<stop stop-color="#09C6F9"/>
<stop offset="1" stop-color="#045DE9"/>
</linearGradient>
</defs>
</svg>
