<svg width="64" height="64" viewBox="0 0 64 64" fill="none" xmlns="http://www.w3.org/2000/svg">
<path d="M21.8432 8.41586C19.4793 7.86138 17.0193 7.86138 14.6554 8.41586C11.5594 9.14208 9.14208 11.5594 8.41586 14.6554C7.86138 17.0193 7.86138 19.4793 8.41586 21.8432C9.14208 24.9392 11.5594 27.3565 14.6554 28.0827C17.0193 28.6372 19.4793 28.6372 21.8432 28.0827C24.9391 27.3565 27.3565 24.9391 28.0827 21.8432C28.6372 19.4793 28.6372 17.0193 28.0827 14.6554C27.3565 11.5594 24.9391 9.14208 21.8432 8.41586Z" fill="#FCA311"/>
<path d="M21.8432 8.41586C19.4793 7.86138 17.0193 7.86138 14.6554 8.41586C11.5594 9.14208 9.14208 11.5594 8.41586 14.6554C7.86138 17.0193 7.86138 19.4793 8.41586 21.8432C9.14208 24.9392 11.5594 27.3565 14.6554 28.0827C17.0193 28.6372 19.4793 28.6372 21.8432 28.0827C24.9391 27.3565 27.3565 24.9391 28.0827 21.8432C28.6372 19.4793 28.6372 17.0193 28.0827 14.6554C27.3565 11.5594 24.9391 9.14208 21.8432 8.41586Z" fill="url(#paint0_linear_2_322)"/>
<path d="M21.8432 35.9173C19.4793 35.3628 17.0193 35.3628 14.6554 35.9173C11.5594 36.6435 9.14208 39.0608 8.41586 42.1568C7.86138 44.5207 7.86138 46.9808 8.41586 49.3446C9.14208 52.4406 11.5594 54.8579 14.6554 55.5841C17.0193 56.1386 19.4793 56.1386 21.8432 55.5841C24.9391 54.8579 27.3565 52.4406 28.0827 49.3446C28.6372 46.9807 28.6372 44.5207 28.0827 42.1568C27.3565 39.0609 24.9391 36.6435 21.8432 35.9173Z" fill="#FCA311"/>
<path d="M21.8432 35.9173C19.4793 35.3628 17.0193 35.3628 14.6554 35.9173C11.5594 36.6435 9.14208 39.0608 8.41586 42.1568C7.86138 44.5207 7.86138 46.9808 8.41586 49.3446C9.14208 52.4406 11.5594 54.8579 14.6554 55.5841C17.0193 56.1386 19.4793 56.1386 21.8432 55.5841C24.9391 54.8579 27.3565 52.4406 28.0827 49.3446C28.6372 46.9807 28.6372 44.5207 28.0827 42.1568C27.3565 39.0609 24.9391 36.6435 21.8432 35.9173Z" fill="url(#paint1_linear_2_322)"/>
<path d="M49.3446 8.41586C46.9808 7.86138 44.5207 7.86138 42.1568 8.41586C39.0609 9.14208 36.6435 11.5594 35.9173 14.6554C35.3628 17.0193 35.3628 19.4793 35.9173 21.8432C36.6435 24.9392 39.0609 27.3565 42.1568 28.0827C44.5207 28.6372 46.9807 28.6372 49.3446 28.0827C52.4406 27.3565 54.8579 24.9391 55.5841 21.8432C56.1386 19.4793 56.1386 17.0193 55.5841 14.6554C54.8579 11.5594 52.4406 9.14208 49.3446 8.41586Z" fill="#FCA311"/>
<path d="M49.3446 8.41586C46.9808 7.86138 44.5207 7.86138 42.1568 8.41586C39.0609 9.14208 36.6435 11.5594 35.9173 14.6554C35.3628 17.0193 35.3628 19.4793 35.9173 21.8432C36.6435 24.9392 39.0609 27.3565 42.1568 28.0827C44.5207 28.6372 46.9807 28.6372 49.3446 28.0827C52.4406 27.3565 54.8579 24.9391 55.5841 21.8432C56.1386 19.4793 56.1386 17.0193 55.5841 14.6554C54.8579 11.5594 52.4406 9.14208 49.3446 8.41586Z" fill="url(#paint2_linear_2_322)"/>
<path d="M49.3446 35.9173C46.9808 35.3628 44.5207 35.3628 42.1568 35.9173C39.0609 36.6435 36.6435 39.0608 35.9173 42.1568C35.3628 44.5207 35.3628 46.9808 35.9173 49.3446C36.6435 52.4406 39.0609 54.8579 42.1568 55.5841C44.5207 56.1386 46.9807 56.1386 49.3446 55.5841C52.4406 54.8579 54.8579 52.4406 55.5841 49.3446C56.1386 46.9807 56.1386 44.5207 55.5841 42.1568C54.8579 39.0609 52.4406 36.6435 49.3446 35.9173Z" fill="#FCA311"/>
<path d="M49.3446 35.9173C46.9808 35.3628 44.5207 35.3628 42.1568 35.9173C39.0609 36.6435 36.6435 39.0608 35.9173 42.1568C35.3628 44.5207 35.3628 46.9808 35.9173 49.3446C36.6435 52.4406 39.0609 54.8579 42.1568 55.5841C44.5207 56.1386 46.9807 56.1386 49.3446 55.5841C52.4406 54.8579 54.8579 52.4406 55.5841 49.3446C56.1386 46.9807 56.1386 44.5207 55.5841 42.1568C54.8579 39.0609 52.4406 36.6435 49.3446 35.9173Z" fill="url(#paint3_linear_2_322)"/>
<defs>
<linearGradient id="paint0_linear_2_322" x1="8" y1="7.77778" x2="37.2452" y2="65.3112" gradientUnits="userSpaceOnUse">
<stop stop-color="#09C6F9"/>
<stop offset="1" stop-color="#045DE9"/>
</linearGradient>
<linearGradient id="paint1_linear_2_322" x1="8" y1="7.77778" x2="37.2452" y2="65.3112" gradientUnits="userSpaceOnUse">
<stop stop-color="#09C6F9"/>
<stop offset="1" stop-color="#045DE9"/>
</linearGradient>
<linearGradient id="paint2_linear_2_322" x1="8" y1="7.77778" x2="37.2452" y2="65.3112" gradientUnits="userSpaceOnUse">
<stop stop-color="#09C6F9"/>
<stop offset="1" stop-color="#045DE9"/>
</linearGradient>
<linearGradient id="paint3_linear_2_322" x1="8" y1="7.77778" x2="37.2452" y2="65.3112" gradientUnits="userSpaceOnUse">
<stop stop-color="#09C6F9"/>
<stop offset="1" stop-color="#045DE9"/>
</linearGradient>
</defs>
</svg>
